<svg width="1106" height="321" viewBox="0 0 1106 321" fill="none" xmlns="http://www.w3.org/2000/svg">
<path d="M113.798 2.36401C96.8955 16.9533 76.9073 36.676 71.4369 44.1057C70.455 45.5241 67.6497 48.6311 66.0366 50.3197C65.5457 50.7925 65.1249 51.468 65.1249 51.8057C65.1249 52.2109 64.8443 52.6161 64.5638 52.7513C64.2833 52.8188 62.9507 54.3047 61.6182 55.9933C60.2857 57.6143 58.8128 59.3705 58.3219 59.9108C57.831 60.3836 56.9192 61.667 56.2179 62.7477C55.5867 63.8959 54.7451 64.7739 54.4646 64.7739C54.184 64.7739 53.9035 65.1792 53.9035 65.7196C53.9035 66.2599 53.623 66.8002 53.3424 66.9353C52.9917 67.0029 51.028 69.5695 48.9941 72.5414C46.9602 75.5133 44.9965 78.0124 44.6458 78.1475C44.3653 78.2826 44.0848 78.6878 44.0848 79.0256C44.0848 79.4308 42.8224 81.5247 41.2794 83.686C39.7365 85.8474 38.4741 88.0088 38.4741 88.3465C38.4741 88.7518 38.1935 89.0895 37.7727 89.0895C37.4221 89.0895 37.0714 89.4272 37.0714 89.7649C37.0714 90.1702 35.6687 92.6693 34.0556 95.371C32.3724 98.0052 30.058 102.058 28.9359 104.287C27.8137 106.516 26.7617 108.474 26.5513 108.677C26.3409 108.88 25.85 109.758 25.4292 110.703C24.9383 111.649 23.6758 114.216 22.5537 116.444C21.3614 118.673 19.7484 122.321 18.8366 124.55C17.9249 126.779 16.943 128.872 16.5923 129.21C16.3118 129.615 16.0313 130.426 16.0313 131.101C16.0313 131.777 15.7507 132.317 15.3299 132.317C14.9793 132.317 14.6286 132.925 14.6286 133.668C14.6286 134.411 14.2779 135.559 13.9273 136.235C11.7531 139.882 4.59947 164.13 2.70586 174.532C2.28505 177.098 1.51358 180.746 1.16292 182.637C0.812246 184.46 0.32131 192.228 0.110909 199.86C-0.380027 216.746 0.671979 225.257 5.02027 240.049C6.98402 246.803 12.735 261.054 13.8571 262C14.0675 262.203 14.839 263.418 15.4702 264.702C16.6625 266.998 18.6964 270.375 19.7484 271.794C25.1487 278.886 30.4788 285.302 33.0738 287.802C51.7293 305.701 71.1564 315.292 98.4384 320.155C105.662 321.438 130.419 321.235 138.064 319.817C144.867 318.534 148.584 317.791 152.091 316.778C153.423 316.44 155.317 315.9 156.299 315.697C157.281 315.427 158.753 314.954 159.665 314.616C160.507 314.279 161.909 313.738 162.821 313.4C186.176 304.417 203.92 290.301 215.001 271.794C218.297 266.255 223.136 254.233 222.715 252.612C222.435 251.666 222.365 251.666 222.295 252.679C222.295 253.355 221.944 253.895 221.523 253.895C221.172 253.895 220.822 254.3 220.822 254.84C220.822 255.381 220.611 255.921 220.261 256.056C219.98 256.124 217.946 258.555 215.772 261.325C211.213 267.268 202.096 276.049 195.574 280.845C187.999 286.451 187.578 286.788 184.843 288.274C183.44 289.085 181.056 290.368 179.653 291.179C178.18 291.922 175.726 293.205 174.183 293.948C172.64 294.691 170.255 295.839 168.923 296.447C167.59 297.123 164.434 298.271 161.909 299.081C159.385 299.892 156.72 300.837 155.948 301.175C150.337 303.404 139.887 305.363 126.843 306.646C112.114 308.065 93.0381 305.363 78.801 299.892C72.7695 297.528 60.5662 291.246 58.6726 289.49C58.1816 289.017 56.6387 287.869 55.3062 286.991C45.4173 280.372 33.705 266.863 27.4631 255.043C10.7712 223.028 11.2622 184.731 28.9359 139.477C32.7231 129.953 41.7002 111.446 44.7861 106.988C45.8381 105.502 47.1005 103.274 47.6616 102.058C48.2227 100.91 48.8539 99.8964 49.1344 99.8964C49.4851 99.8964 49.6955 99.5587 49.6955 99.1534C49.6955 98.7482 50.6773 97.1271 51.7995 95.5061C52.9917 93.8851 53.9035 92.3991 53.9035 92.1289C53.9035 91.4535 58.3219 85.4422 58.9531 85.172C59.2337 85.0369 59.5142 84.5641 59.5142 84.1588C59.5142 83.686 60.7766 81.7273 62.3195 79.7685C63.8625 77.8098 65.1249 75.9186 65.1249 75.5808C65.1249 75.1756 65.4054 74.9054 65.686 74.9054C65.9665 74.9054 66.8081 74.0274 67.4393 72.8791C68.1406 71.7984 69.0524 70.5151 69.5433 70.0423C70.0342 69.5695 71.2967 68.016 72.4188 66.5976C73.4708 65.1792 74.5929 64.166 74.8033 64.3687C75.154 64.774 73.6111 68.1511 72.7695 68.8265C72.2785 69.1642 70.1745 72.6089 67.2289 77.9449C64.7041 82.5378 63.4417 84.6316 63.0209 85.0369C62.8105 85.2395 59.6545 91.1158 56.0776 98.2078C52.5008 105.232 48.924 112.189 48.2227 113.608C47.5213 115.094 46.8901 116.647 46.8901 117.187C46.8901 117.728 46.6096 118.133 46.1888 118.133C45.8381 118.133 45.4874 118.876 45.4874 119.822C45.4874 120.767 45.2069 121.51 44.7861 121.51C44.4354 121.51 44.0848 121.983 44.0848 122.523C44.0848 123.064 43.8042 124.077 43.4536 124.752C43.1029 125.36 42.121 127.724 41.2794 129.953C40.4378 132.182 39.4559 134.546 39.1053 135.154C38.7546 135.829 38.4741 136.843 38.4741 137.383C38.4741 137.923 38.1935 138.936 37.8429 139.612C37.4922 140.22 36.5103 143.057 35.6687 145.826C34.8271 148.595 33.8452 151.567 33.4946 152.445C33.1439 153.323 32.8634 154.674 32.8634 155.484C32.8634 156.363 32.5828 157.308 32.2322 157.713C31.8815 158.051 31.4607 159.537 31.2503 161.023C31.0399 162.509 30.6892 164.333 30.4087 165.143C29.9879 166.426 30.2684 166.629 33.2842 167.034C37.4922 167.575 44.6458 167.575 47.5213 167.034C49.4149 166.629 49.6955 166.291 49.6955 164.4C49.6955 162.779 50.1163 162.104 51.4488 161.496C55.4464 159.74 59.0232 161.091 59.935 164.603L60.5662 167.102L67.5796 167.034C75.9255 167.034 78.0996 166.156 80.414 162.036C81.6063 159.807 81.957 158.119 81.957 153.863C81.957 148.663 81.8868 148.528 80.2036 148.528C78.0295 148.528 76.6969 146.366 77.749 144.475C78.3802 143.259 79.2218 143.124 84.7623 143.124C88.1287 143.124 91.425 142.921 92.0562 142.719C92.968 142.381 93.1784 141.03 93.1784 134.884C93.1784 128.062 93.0381 127.319 91.6354 126.171C89.812 124.617 88.1989 124.617 81.0452 125.901C75.0839 126.981 70.1745 127.184 68.9121 126.373C68.4212 126.103 67.4393 124.752 66.5977 123.334C63.9326 118.741 65.1249 112.865 69.3329 109.96C71.0161 108.745 71.3668 108.812 80.3439 110.838L89.6016 112.865L91.5653 111.514C95.1421 109.15 98.5085 108.407 102.015 109.352C103.769 109.825 105.943 110.838 106.925 111.581L108.748 112.932L118.146 110.906C128.736 108.609 129.858 108.745 131.892 112.73C134.277 117.458 132.804 124.55 129.157 126.171C126.843 127.184 124.949 127.116 116.182 125.765C108.958 124.685 108.608 124.685 107.205 125.901C105.943 126.981 105.802 127.927 105.802 135.086V143.057L112.886 143.259C118.777 143.462 120.18 143.664 120.811 144.61C121.793 146.163 120.671 147.987 118.356 148.528C116.743 148.933 116.673 149.203 116.743 154.336C116.743 160.618 118.216 164.265 121.092 165.278C122.144 165.683 125.019 166.156 127.544 166.426C136.451 167.305 145.358 171.695 152.792 178.854C160.787 186.554 165.136 195.47 167.24 208.303C168.081 213.842 168.081 214.45 167.029 215.193C166.398 215.665 165.065 216.071 164.084 216.071C163.102 216.071 161.138 216.341 159.805 216.679C158.473 217.016 154.966 217.624 152.091 218.097C149.215 218.502 145.638 219.11 144.236 219.448C141.01 220.123 140.729 219.718 139.537 214.044C138.415 208.438 136.17 202.157 134.277 199.388C131.331 194.997 125.931 194.254 118.777 197.159C108.888 201.211 107.345 201.481 96.124 201.481C88.8301 201.481 85.1831 201.211 84.6221 200.671C84.1311 200.198 83.0791 199.86 82.2375 199.86C81.3258 199.86 80.414 199.523 80.2036 199.185C79.9932 198.78 79.1516 198.509 78.3802 198.509C77.6788 198.509 76.4865 198.239 75.7852 197.902C71.7876 195.875 59.935 195.2 59.7947 196.956C59.7246 197.429 59.6545 198.577 59.5843 199.455C59.3739 203.17 49.6955 203.17 49.6955 199.455C49.6955 195.808 49.6253 195.808 37.9831 195.808H27.1124L27.4631 204.048C27.8839 212.018 28.4449 216.003 29.9879 221.812C30.4087 223.298 30.8996 225.392 31.11 226.54C31.3906 227.621 31.8815 229.242 32.2322 230.052C32.5828 230.93 33.1439 232.281 33.4946 233.092C35.7388 238.698 42.4016 250.72 43.4536 251.058C43.8042 251.193 44.0848 251.666 44.0848 252.071C44.0848 252.544 44.7861 253.692 45.6978 254.638C46.5394 255.651 48.0123 257.475 48.9941 258.69C49.976 259.974 52.9917 263.148 55.6568 265.782C68.0705 277.873 85.5338 286.856 102.997 290.098C109.379 291.246 128.245 291.381 134.207 290.301C138.274 289.625 144.095 288.207 146.69 287.396C147.322 287.194 148.374 286.856 149.075 286.653C150.057 286.316 149.917 285.91 148.093 284.087C143.043 278.886 141.36 274.631 141.36 267.066C141.36 260.311 142.553 256.597 147.602 247.005C153.984 234.983 154.195 234.51 155.177 230.795C156.649 225.121 157.491 225.392 166.819 234.375C175.515 242.683 181.196 251.936 182.95 260.649C183.37 262.676 183.861 264.702 184.002 265.175C184.563 266.728 195.083 255.381 200.273 247.681C206.374 238.563 210.021 230.322 213.177 218.097C215.001 210.87 215.842 188.918 214.58 180.138C210.933 155.214 203.218 132.317 188.911 104.219C182.739 92.0614 176.147 80.2413 174.534 78.4852C174.183 78.0124 173.832 77.5396 173.832 77.337C173.832 77.0668 169.624 70.1774 166.749 65.7871C165.065 63.1529 154.826 48.4285 149.917 41.4715C145.989 35.933 138.765 26.4094 135.399 22.2893C134.347 21.0735 133.225 19.52 132.874 18.9121C132.523 18.3042 132.032 17.6963 131.822 17.4937C131.051 16.8858 126.492 11.685 124.388 9.05081C123.266 7.56485 121.793 5.94379 121.232 5.33591C120.671 4.72803 119.338 3.30963 118.356 2.16141L116.463 0L113.798 2.36401ZM186.526 223.568C189.893 224.041 191.857 224.784 193.68 226.27C201.675 232.619 195.083 243.426 185.194 240.184C182.318 239.238 178.18 236.469 178.11 235.456C178.04 235.118 177.479 234.037 176.708 233.092C175.165 230.863 172.289 223.568 172.71 222.893C173.131 222.285 180.425 222.622 186.526 223.568Z" fill="#FAFAFA"/>
<path d="M298.616 55.0394L317.208 54.6382L318.412 61.8609C313.686 61.8609 310.743 62.173 309.584 62.7972C308.514 63.4213 307.979 64.2239 307.979 65.2047C307.979 66.1856 308.202 67.211 308.648 68.2811L330.45 124.993L343.557 87.4079L338.207 72.8287C336.691 68.8161 335.042 66.0072 333.258 64.4022C331.475 62.708 328.978 61.8609 325.768 61.8609L324.297 54.7719C333.214 54.9503 340.124 55.0394 345.029 55.0394C349.933 55.0394 356.532 54.9057 364.824 54.6382L366.028 61.8609C361.302 61.8609 358.359 62.173 357.2 62.7972C356.13 63.4213 355.595 64.2239 355.595 65.2047C355.595 66.1856 355.818 67.211 356.264 68.2811L378.066 124.993L396.524 72.1599C396.881 71.1791 397.059 70.2428 397.059 69.3511C397.059 67.4785 395.944 65.7843 393.715 64.2684C391.486 62.7526 388.053 61.95 383.416 61.8609L382.078 54.6382L403.613 55.0394L419.931 54.6382L420.867 61.8609C417.746 62.1284 415.205 62.8863 413.243 64.1347C411.281 65.3831 409.855 66.7652 408.963 68.2811C408.071 69.7078 407.09 71.8924 406.02 74.835L378.066 150.005H366.697L348.64 101.184L330.45 150.005H319.08L290.591 72.8287C289.075 68.8161 287.425 66.0072 285.642 64.4022C283.859 62.708 281.362 61.8609 278.152 61.8609L276.68 54.6382C280.782 54.9057 288.094 55.0394 298.616 55.0394ZM419.982 150.005L403.664 150.54L402.728 143.183C405.849 142.916 408.39 142.158 410.352 140.909C412.313 139.661 413.74 138.323 414.632 136.897C415.524 135.381 416.504 133.152 417.574 130.209L445.529 55.0394H457.166L488.731 132.349C490.337 136.362 491.986 139.215 493.68 140.909C495.464 142.514 497.961 143.317 501.171 143.317L502.642 150.406C498.54 150.138 491.808 150.005 482.445 150.005C473.082 150.005 466.305 150.138 462.114 150.406L460.911 143.317C465.637 143.317 468.579 143.005 469.738 142.381C470.898 141.667 471.477 140.865 471.477 139.973C471.477 139.081 471.21 138.056 470.675 136.897L461.713 116.834H432.689L427.071 132.884C426.714 133.865 426.536 134.801 426.536 135.693C426.536 137.566 427.651 139.26 429.88 140.776C432.109 142.292 435.542 143.094 440.179 143.183L441.516 150.54L419.982 150.005ZM445.93 79.2489L435.631 108.273H457.968L445.93 79.2489ZM600.292 150.406L587.05 150.005C584.197 150.005 579.114 150.094 571.802 150.272C570.999 149.202 569.974 147.775 568.726 145.992C567.566 144.119 566.095 141.89 564.312 139.304C562.618 136.629 559.452 131.814 554.815 124.859C550.268 117.904 546.79 112.821 544.382 109.611C544.382 109.522 544.427 109.477 544.516 109.477H535.822V138.368C535.822 139.973 536.402 141.177 537.561 141.979C538.809 142.782 541.217 143.183 544.784 143.183L546.523 150.406C535.822 150.138 528.51 150.005 524.587 150.005C520.663 150.005 515.269 150.138 508.403 150.406L506.798 143.183C511.078 143.094 513.887 142.648 515.224 141.846C516.651 141.043 517.364 139.884 517.364 138.368V66.676C517.364 65.071 516.74 63.8672 515.492 63.0647C514.332 62.2621 511.969 61.8609 508.403 61.8609L506.664 54.6382C517.364 54.9057 523.606 55.0394 525.389 55.0394L545.319 54.5044C555.841 54.5044 564.401 56.6891 570.999 61.0583C577.687 65.3385 581.031 71.8924 581.031 80.7202C581.031 92.5797 574.789 101.006 562.305 106C566.051 110.904 568.77 114.604 570.464 117.101H570.331C580.139 130.566 585.489 137.699 586.381 138.502C589.591 141.534 593.381 143.183 597.75 143.451L600.292 150.406ZM535.822 64.0009V102.121C537.338 102.21 539.211 102.255 541.44 102.255C548.484 102.255 553.79 100.337 557.357 96.5031C561.013 92.6688 562.84 87.6754 562.84 81.5227C562.84 75.2808 561.013 70.644 557.357 67.6123C553.701 64.5805 549.198 63.0647 543.847 63.0647C538.497 63.0647 535.822 63.3767 535.822 64.0009ZM645.479 150.406L621.404 149.737C616.678 149.737 610.882 149.871 604.016 150.138L602.411 142.916C606.691 142.827 609.5 142.381 610.837 141.578C612.264 140.776 612.977 139.616 612.977 138.101V66.8098C612.977 65.2047 612.353 64.0009 611.105 63.1984C609.946 62.3959 607.583 61.9946 604.016 61.9946L602.277 54.7719C612.977 55.0394 619.219 55.1732 621.002 55.1732L647.753 54.9057C665.409 54.9057 679.23 58.9183 689.217 66.9435C699.204 74.8796 704.197 86.3378 704.197 101.318C704.197 116.21 699.07 128.114 688.816 137.031C678.65 145.947 664.205 150.406 645.479 150.406ZM649.091 141.979C660.237 141.979 668.753 138.636 674.638 131.948C680.523 125.26 683.466 115.585 683.466 102.923C683.466 90.1721 680.077 80.3189 673.3 73.3637C666.613 66.3193 657.027 62.7972 644.543 62.7972H634.512C632.193 62.7972 631.034 63.1092 631.034 63.7334V133.152C631.034 135.47 631.257 137.12 631.703 138.101C632.149 139.081 633.709 139.973 636.384 140.776C639.059 141.578 643.295 141.979 649.091 141.979ZM796.925 64.0009H789.569V138.368C789.569 140.062 790.238 141.311 791.575 142.113C792.913 142.827 795.677 143.183 799.868 143.183L801.607 150.406C790.906 150.138 783.149 150.005 778.334 150.005C773.518 150.005 767.678 150.138 760.812 150.406L759.207 143.183C764.111 143.094 767.321 142.648 768.837 141.846C770.353 141.043 771.111 139.884 771.111 138.368V64.0009H766.697C758.583 64.0009 753.455 65.0264 751.315 67.0773C749.443 68.5931 747.838 73.0962 746.5 80.5864L740.347 80.7202C739.456 76.3509 739.01 71.8032 739.01 67.0773C739.01 62.3513 739.545 57.982 740.615 53.9694C744.093 54.6827 748.016 55.0394 752.385 55.0394H810.434C816.409 55.0394 820.912 54.6827 823.944 53.9694C824.479 60.1221 824.746 65.0264 824.746 68.6823C824.746 72.2491 824.256 76.3955 823.275 81.1214L816.988 80.1851C816.008 73.0516 814.403 68.6823 812.173 67.0773C809.32 65.0264 804.237 64.0009 796.925 64.0009ZM849.306 55.0394L867.897 54.6382L869.101 61.8609C864.375 61.8609 861.433 62.173 860.273 62.7972C859.203 63.4213 858.668 64.2239 858.668 65.2047C858.668 66.1856 858.891 67.211 859.337 68.2811L881.139 124.993L894.247 87.4079L888.897 72.8287C887.381 68.8161 885.731 66.0072 883.948 64.4022C882.165 62.708 879.668 61.8609 876.458 61.8609L874.986 54.7719C883.903 54.9503 890.814 55.0394 895.718 55.0394C900.623 55.0394 907.221 54.9057 915.514 54.6382L916.718 61.8609C911.992 61.8609 909.049 62.173 907.89 62.7972C906.82 63.4213 906.285 64.2239 906.285 65.2047C906.285 66.1856 906.508 67.211 906.954 68.2811L928.755 124.993L947.213 72.1599C947.57 71.1791 947.748 70.2428 947.748 69.3511C947.748 67.4785 946.634 65.7843 944.405 64.2684C942.175 62.7526 938.742 61.95 934.106 61.8609L932.768 54.6382L954.302 55.0394L970.62 54.6382L971.557 61.8609C968.436 62.1284 965.894 62.8863 963.933 64.1347C961.971 65.3831 960.544 66.7652 959.653 68.2811C958.761 69.7078 957.78 71.8924 956.71 74.835L928.755 150.005H917.386L899.33 101.184L881.139 150.005H869.77L841.28 72.8287C839.765 68.8161 838.115 66.0072 836.332 64.4022C834.548 62.708 832.051 61.8609 828.841 61.8609L827.37 54.6382C831.472 54.9057 838.784 55.0394 849.306 55.0394ZM1021.34 151.61C1006.63 151.61 994.545 147.24 985.093 138.502C975.641 129.674 970.915 118.26 970.915 104.261C970.915 90.1721 975.953 78.1788 986.029 68.2811C996.105 58.3833 1008.46 53.4344 1023.08 53.4344C1037.79 53.4344 1049.79 57.8928 1059.06 66.8098C1068.33 75.6375 1072.97 87.1403 1072.97 101.318C1072.97 115.496 1068.02 127.445 1058.12 137.164C1048.31 146.795 1036.05 151.61 1021.34 151.61ZM1006.09 135.559C1011.26 139.839 1017.82 141.979 1025.75 141.979C1033.69 141.979 1040.07 138.591 1044.88 131.814C1049.79 125.037 1052.24 116.566 1052.24 106.401C1052.24 93.828 1049.43 83.3952 1043.81 75.1025C1038.19 66.8098 1030.08 62.6634 1019.47 62.6634C1011.09 62.6634 1004.35 66.141 999.271 73.0962C994.188 80.0514 991.647 88.6116 991.647 98.7769C991.647 115.452 996.462 127.712 1006.09 135.559ZM370.258 203.603L379.745 203.238L380.657 207.434H380.11C377.312 207.739 375.153 208.529 373.633 209.806C372.173 211.022 370.927 213.06 369.893 215.918L350.554 268.005H346.176L333.04 232.338L319.722 268.005H315.343L295.64 214.458C294.241 211.479 293.055 209.533 292.082 208.62C291.109 207.708 289.528 207.252 287.339 207.252L286.335 203.238C291.079 203.542 295.336 203.694 299.106 203.694C302.937 203.694 306.647 203.542 310.235 203.238L311.056 207.161H310.691C305.887 207.222 303.485 208.073 303.485 209.715C303.485 210.323 303.698 211.083 304.123 211.995L320.452 254.778L330.851 226.317L326.472 214.458C325.073 211.479 323.888 209.533 322.915 208.62C321.942 207.708 320.36 207.252 318.171 207.252L317.168 203.238C321.911 203.542 326.168 203.694 329.939 203.694C333.77 203.694 337.479 203.542 341.067 203.238L341.888 207.161H341.524C336.719 207.222 334.317 208.073 334.317 209.715C334.317 210.323 334.53 211.083 334.956 211.995L351.284 254.778L366.244 213.546C366.427 212.816 366.518 212.178 366.518 211.631C366.518 210.354 365.94 209.381 364.785 208.712C363.629 208.043 361.653 207.617 358.855 207.434L357.761 203.238L370.258 203.603ZM392.572 267.64L383.085 268.005L382.173 263.809H382.72C385.517 263.504 387.646 262.744 389.105 261.528C390.626 260.251 391.903 258.183 392.937 255.325L412.275 203.238H416.654L438.182 256.785C439.459 259.764 440.584 261.71 441.557 262.623C442.591 263.535 444.233 263.991 446.483 263.991L447.486 268.005C442.743 267.701 438.456 267.549 434.624 267.549C430.854 267.549 427.175 267.701 423.587 268.005L422.766 264.082H423.131C427.935 264.021 430.337 263.17 430.337 261.528C430.337 260.737 428.148 255.325 423.769 245.291H401.055L396.586 257.697C396.403 258.427 396.312 259.065 396.312 259.612C396.312 260.889 396.89 261.862 398.045 262.531C399.201 263.2 401.177 263.626 403.974 263.809L405.069 268.005L392.572 267.64ZM411.546 216.465L402.788 240.547H421.671L411.546 216.465ZM490.14 207.343H482.842V260.525C482.842 261.802 483.328 262.653 484.301 263.079C485.335 263.504 487.646 263.839 491.234 264.082L492.055 268.096C484.21 267.913 480.014 267.822 479.467 267.822C478.92 267.822 474.632 267.913 466.605 268.096L465.875 264.082C469.95 263.717 472.412 263.383 473.264 263.079C474.115 262.714 474.541 261.862 474.541 260.525V207.343H468.885C465.845 207.343 463.595 207.495 462.135 207.799C457.939 208.651 455.263 212.391 454.108 219.019L451.553 219.202C451.128 217.073 450.915 214.154 450.915 210.445C450.915 206.674 451.128 204.059 451.553 202.6C452.891 203.026 455.293 203.238 458.76 203.238H499.718C503.245 203.238 505.617 203.026 506.833 202.6C507.076 205.215 507.198 208.012 507.198 210.992C507.198 213.972 506.954 216.709 506.468 219.202L503.731 218.928C503.184 214.671 501.907 211.691 499.9 209.989C497.893 208.225 494.64 207.343 490.14 207.343ZM545.842 207.252L535.534 207.343C531.277 207.526 529.149 208.012 529.149 208.803V231.608C529.149 232.216 529.453 232.52 530.061 232.52H544.565C546.025 232.52 546.998 231.851 547.484 230.513C548.032 229.114 548.305 226.56 548.305 222.851L551.315 222.395L551.133 234.527L551.315 245.747L548.305 246.203C548.305 242.615 548.092 240.304 547.667 239.27C547.241 238.236 546.207 237.72 544.565 237.72H530.061C529.453 237.72 529.149 237.993 529.149 238.541V257.697C529.149 260.373 529.696 262.075 530.791 262.805C531.886 263.474 534.288 263.809 537.997 263.809H546.846C551.468 263.809 555.086 262.744 557.701 260.616C560.316 258.427 562.384 255.082 563.904 250.582L567.005 251.129C567.005 252.224 566.215 255.325 564.634 260.433C563.052 265.481 561.927 268.005 561.258 268.005L537.997 268.187C536.416 268.187 531.794 268.126 524.132 268.005L514.006 268.278L513.277 264.265C516.682 263.9 518.75 263.565 519.48 263.261C520.27 262.896 520.726 262.045 520.848 260.707V210.536C520.848 209.259 520.422 208.407 519.571 207.982C518.72 207.556 516.743 207.222 513.642 206.978L512.821 202.965L524.223 203.238H538.91L561.441 203.33C561.867 204.242 562.079 206.279 562.079 209.441C562.079 212.604 561.927 215.857 561.623 219.202L558.704 218.928C557.975 214.61 556.637 211.6 554.691 209.897C552.745 208.134 549.795 207.252 545.842 207.252ZM572.06 202.965L583.007 203.238L596.963 202.873C603.653 202.873 609.126 204.303 613.383 207.161C617.64 210.019 619.768 214.398 619.768 220.297C619.768 228.993 615.359 234.861 606.541 237.902C607.819 239.605 609.825 242.341 612.562 246.112C618.461 254.504 622.444 259.673 624.512 261.619C626.64 263.565 629.073 264.66 631.809 264.903L632.995 268.096L626.245 267.822L617.123 268.005C615.968 266.423 612.896 261.862 607.91 254.322C602.984 246.781 599.67 241.976 597.967 239.909C597.724 239.666 597.389 239.544 596.963 239.544H588.206V260.707C588.206 261.923 588.754 262.775 589.848 263.261C590.943 263.687 593.041 264.021 596.142 264.265L596.963 268.278C589.118 268.096 585.105 268.005 584.922 268.005L573.246 268.278L572.516 264.265C575.922 263.9 577.99 263.565 578.719 263.261C579.51 262.896 579.905 262.045 579.905 260.707V210.536C579.905 209.32 579.449 208.499 578.537 208.073C577.685 207.587 575.8 207.222 572.881 206.978L572.06 202.965ZM588.206 208.712V235.165C589.605 235.348 591.612 235.439 594.227 235.439C605.477 235.439 611.102 230.422 611.102 220.388C611.102 216.009 609.673 212.725 606.815 210.536C603.957 208.286 600.247 207.161 595.686 207.161C591.733 207.161 589.483 207.343 588.936 207.708C588.449 208.012 588.206 208.347 588.206 208.712ZM664.966 268.005L654.841 268.278L654.111 264.265C657.517 263.9 659.584 263.565 660.314 263.261C661.105 262.896 661.5 262.045 661.5 260.707V210.627C661.5 209.411 661.044 208.59 660.132 208.164C659.28 207.678 657.395 207.313 654.476 207.07L653.655 203.056L664.875 203.33L683.758 203.147C695.373 203.147 704.434 205.914 710.941 211.448C717.448 216.982 720.702 224.736 720.702 234.709C720.702 244.683 717.357 252.771 710.668 258.974C703.978 265.177 694.491 268.278 682.207 268.278C682.207 268.278 676.46 268.187 664.966 268.005ZM684.761 263.626C693.275 263.626 699.782 261.254 704.282 256.511C708.843 251.707 711.124 244.835 711.124 235.895C711.124 226.895 708.539 219.901 703.37 214.915C698.262 209.928 690.964 207.434 681.477 207.434H674.453C671.352 207.434 669.801 208.043 669.801 209.259V256.237C669.801 257.454 669.832 258.335 669.892 258.883C670.014 259.43 670.288 260.099 670.713 260.889C671.2 261.619 671.96 262.136 672.994 262.44C675.67 263.231 679.592 263.626 684.761 263.626ZM728.523 202.965L740.016 203.238C740.077 203.238 744.121 203.147 752.149 202.965L752.878 206.978C749.047 207.343 746.706 207.708 745.854 208.073C745.003 208.377 744.577 209.198 744.577 210.536V260.707C744.577 261.984 745.003 262.835 745.854 263.261C746.706 263.687 748.591 264.021 751.51 264.265L752.331 268.278L740.837 268.005C740.777 268.005 736.732 268.096 728.705 268.278L727.975 264.265C731.807 263.9 734.148 263.565 734.999 263.261C735.851 262.896 736.276 262.045 736.276 260.707V210.536C736.276 209.259 735.851 208.407 734.999 207.982C734.148 207.556 732.263 207.222 729.344 206.978L728.523 202.965ZM781.206 264.538C785.402 264.538 788.625 263.474 790.875 261.346C793.186 259.217 794.342 256.633 794.342 253.592C794.342 250.551 793.217 247.967 790.966 245.838C788.777 243.649 786.071 241.764 782.848 240.183C779.686 238.601 776.493 236.959 773.27 235.257C770.107 233.554 767.401 231.304 765.151 228.506C762.962 225.648 761.867 222.334 761.867 218.563C761.867 213.151 763.813 209.076 767.705 206.34C771.597 203.542 776.219 202.144 781.571 202.144C788.443 202.144 794.342 203.299 799.267 205.61C799.693 206.522 799.906 208.924 799.906 212.816C799.906 216.648 799.784 219.536 799.541 221.482L796.713 221.3C796.47 217.043 794.98 213.516 792.243 210.718C789.568 207.86 785.919 206.431 781.297 206.431C778.013 206.431 775.307 207.282 773.178 208.985C771.111 210.627 770.077 212.938 770.077 215.918C770.077 219.445 772.236 222.516 776.554 225.131C778.439 226.287 780.537 227.442 782.848 228.598C785.159 229.753 787.47 231 789.781 232.338C792.091 233.615 794.19 235.044 796.075 236.625C800.392 240.152 802.551 244.652 802.551 250.125C802.551 255.538 800.666 260.068 796.896 263.717C793.125 267.305 788.139 269.099 781.936 269.099C775.733 269.099 769.286 267.853 762.597 265.359C762.293 264.447 761.867 262.197 761.32 258.609C760.773 254.96 760.377 251.889 760.134 249.396L764.33 248.757C766.763 259.278 772.388 264.538 781.206 264.538ZM848.784 207.343H841.487V260.525C841.487 261.802 841.973 262.653 842.946 263.079C843.98 263.504 846.291 263.839 849.879 264.082L850.7 268.096C842.855 267.913 838.659 267.822 838.112 267.822C837.564 267.822 833.277 267.913 825.249 268.096L824.52 264.082C828.594 263.717 831.057 263.383 831.909 263.079C832.76 262.714 833.186 261.862 833.186 260.525V207.343H827.53C824.489 207.343 822.239 207.495 820.78 207.799C816.584 208.651 813.908 212.391 812.752 219.019L810.198 219.202C809.772 217.073 809.56 214.154 809.56 210.445C809.56 206.674 809.772 204.059 810.198 202.6C811.536 203.026 813.938 203.238 817.405 203.238H858.362C861.89 203.238 864.261 203.026 865.478 202.6C865.721 205.215 865.842 208.012 865.842 210.992C865.842 213.972 865.599 216.709 865.113 219.202L862.376 218.928C861.829 214.671 860.552 211.691 858.545 209.989C856.538 208.225 853.284 207.343 848.784 207.343ZM871.465 202.965L882.412 203.238L896.368 202.873C903.058 202.873 908.531 204.303 912.788 207.161C917.045 210.019 919.173 214.398 919.173 220.297C919.173 228.993 914.764 234.861 905.946 237.902C907.224 239.605 909.23 242.341 911.967 246.112C917.866 254.504 921.849 259.673 923.917 261.619C926.045 263.565 928.478 264.66 931.214 264.903L932.4 268.096L925.65 267.822L916.528 268.005C915.373 266.423 912.301 261.862 907.315 254.322C902.389 246.781 899.075 241.976 897.372 239.909C897.129 239.666 896.794 239.544 896.368 239.544H887.611V260.707C887.611 261.923 888.159 262.775 889.253 263.261C890.348 263.687 892.446 264.021 895.547 264.265L896.368 268.278C888.523 268.096 884.51 268.005 884.327 268.005L872.651 268.278L871.921 264.265C875.327 263.9 877.395 263.565 878.124 263.261C878.915 262.896 879.31 262.045 879.31 260.707V210.536C879.31 209.32 878.854 208.499 877.942 208.073C877.091 207.587 875.205 207.222 872.286 206.978L871.465 202.965ZM887.611 208.712V235.165C889.01 235.348 891.017 235.439 893.632 235.439C904.882 235.439 910.507 230.422 910.507 220.388C910.507 216.009 909.078 212.725 906.22 210.536C903.362 208.286 899.652 207.161 895.091 207.161C891.138 207.161 888.888 207.343 888.341 207.708C887.854 208.012 887.611 208.347 887.611 208.712ZM936.619 202.965L948.112 203.238C948.173 203.238 952.217 203.147 960.245 202.965L960.974 206.978C957.143 207.343 954.802 207.708 953.95 208.073C953.099 208.377 952.673 209.198 952.673 210.536V260.707C952.673 261.984 953.099 262.835 953.95 263.261C954.802 263.687 956.687 264.021 959.606 264.265L960.427 268.278L948.933 268.005C948.872 268.005 944.828 268.096 936.801 268.278L936.071 264.265C939.902 263.9 942.244 263.565 943.095 263.261C943.947 262.896 944.372 262.045 944.372 260.707V210.536C944.372 209.259 943.947 208.407 943.095 207.982C942.244 207.556 940.359 207.222 937.44 206.978L936.619 202.965ZM1004.17 206.522C995.778 206.522 989.454 209.168 985.197 214.458C981.001 219.688 978.903 226.469 978.903 234.801C978.903 243.071 981.366 250.095 986.291 255.872C991.217 261.65 997.603 264.538 1005.45 264.538C1016.21 264.538 1023.51 259.886 1027.34 250.582L1029.99 251.129C1029.99 251.798 1029.38 254.109 1028.16 258.062C1027.01 261.954 1026.15 263.9 1025.61 263.9C1019.47 267.366 1012.14 269.099 1003.62 269.099C993.467 269.099 985.197 266.089 978.811 260.068C972.487 254.048 969.325 246.325 969.325 236.899C969.325 226.195 972.608 217.742 979.176 211.539C985.805 205.276 994.349 202.144 1004.81 202.144C1008.64 202.144 1013.17 202.691 1018.4 203.786C1023.69 204.82 1026.61 205.367 1027.16 205.428C1027.58 206.34 1027.8 208.377 1027.8 211.539C1027.8 214.702 1027.64 217.955 1027.34 221.3L1024.79 221.026C1024.3 217.499 1023.3 214.763 1021.78 212.816C1018.49 208.62 1012.62 206.522 1004.17 206.522ZM1076.3 207.343H1069V260.525C1069 261.802 1069.49 262.653 1070.46 263.079C1071.5 263.504 1073.81 263.839 1077.39 264.082L1078.22 268.096C1070.37 267.913 1066.17 267.822 1065.63 267.822C1065.08 267.822 1060.79 267.913 1052.77 268.096L1052.04 264.082C1056.11 263.717 1058.57 263.383 1059.42 263.079C1060.28 262.714 1060.7 261.862 1060.7 260.525V207.343H1055.05C1052.01 207.343 1049.76 207.495 1048.3 207.799C1044.1 208.651 1041.42 212.391 1040.27 219.019L1037.71 219.202C1037.29 217.073 1037.08 214.154 1037.08 210.445C1037.08 206.674 1037.29 204.059 1037.71 202.6C1039.05 203.026 1041.45 203.238 1044.92 203.238H1085.88C1089.41 203.238 1091.78 203.026 1092.99 202.6C1093.24 205.215 1093.36 208.012 1093.36 210.992C1093.36 213.972 1093.11 216.709 1092.63 219.202L1089.89 218.928C1089.34 214.671 1088.07 211.691 1086.06 209.989C1084.05 208.225 1080.8 207.343 1076.3 207.343Z" fill="#FAFAFA"/>
</svg>
