<svg width="494" height="187" viewBox="0 0 494 187" fill="none" xmlns="http://www.w3.org/2000/svg">
<path d="M31.1874 109.314C19.629 115.811 10.1387 125.426 3.8043 137.059C2.28635 140.093 1.21678 143.33 0.62877 146.67C-0.655436 152.634 0.0389391 158.853 2.60704 164.387C4.73206 168.317 7.76588 171.683 11.4568 174.207C17.6653 178.639 24.7744 181.655 32.2805 183.039C41.6322 185.312 51.1902 186.635 60.8088 186.988C80.0594 187.167 99.269 185.18 118.074 181.065C137.75 177.278 156.953 171.354 175.339 163.4C205.169 150.307 229.168 133.006 228.544 131.967C223.774 133.497 219.156 135.462 214.748 137.838C213.446 138.409 192.883 147.45 171.434 154.568C152.77 160.751 133.613 165.34 114.169 168.284C104.373 169.802 94.5029 170.791 84.6001 171.246C77.0614 171.791 69.4932 171.791 61.9545 171.246C40.5062 169.427 31.0312 163.192 28.4803 161.426C24.6736 159.037 21.6093 155.636 19.6305 151.606C18.1973 148.189 17.5224 144.502 17.6522 140.799C17.4583 135.077 18.4689 129.378 20.6193 124.07C21.4214 122.033 22.3971 120.069 23.5349 118.199C25.6193 114.867 28.1996 111.871 31.1874 109.314Z" fill="#FAFAFA"/>
<path d="M83.3502 85.5182L99.1241 80.5824V135.604L83.3502 130.98V85.5182Z" fill="#FAFAFA"/>
<path d="M141.032 135.605L167.113 133.63L166.645 0L141.032 11.6901V135.605Z" fill="#FAFAFA"/>
<path d="M97.147 65.103C91.2297 67.7804 85.6106 71.0718 80.3835 74.9228C67.8373 82.9759 62.2674 87.0286 58.7274 89.6783C54.6043 92.7246 50.6587 96.0032 46.9099 99.4981C43.6702 102.499 40.7078 105.786 38.0594 109.317C35.5599 112.62 33.5764 116.281 32.1767 120.176C31.0831 123.007 30.4164 125.983 30.1985 129.009C29.9042 132.641 30.2391 136.297 31.1879 139.816C32.6015 142.974 34.6329 145.819 37.1628 148.183C39.6927 150.547 42.6699 152.383 45.9204 153.584C68.7744 164.391 104.018 158.156 116.825 155.558C131.612 152.514 146.118 148.239 160.191 142.777C160.191 142.777 149.779 144.752 139.367 146.258C132.703 147.245 128.538 147.869 122.603 148.232C115.674 148.802 108.709 148.802 101.78 148.232C97.126 148.043 92.5042 147.381 87.9846 146.258C79.5877 144.938 71.9906 140.526 66.6919 133.893C62.2659 126.51 60.8495 117.713 62.7354 109.317C64.5499 102.434 67.9152 96.0545 72.5746 90.6655C84.7565 74.2994 97.7717 65.9343 97.147 65.103Z" fill="#FAFAFA"/>
<path d="M130.202 47.8508L109.379 58.2419V136.176H130.202V47.8508Z" fill="#FAFAFA"/>
<path d="M266.331 110.711C267.233 110.749 268.132 110.568 268.949 110.183C269.622 109.848 270.177 109.314 270.537 108.655C270.874 107.895 271.035 107.069 271.01 106.238H282.932C283.021 108.98 282.294 111.687 280.842 114.017C279.405 116.218 277.392 117.986 275.021 119.129C272.409 120.355 269.551 120.973 266.665 120.935C263.14 121.068 259.65 120.19 256.609 118.407C253.956 116.74 251.861 114.322 250.593 111.461C249.191 108.335 248.497 104.939 248.559 101.514V100.82C248.504 97.3902 249.188 93.9886 250.565 90.8454C251.833 87.9848 253.928 85.5664 256.582 83.8994C259.612 82.1153 263.093 81.2378 266.609 81.3712C269.571 81.2997 272.508 81.9179 275.188 83.177C277.589 84.345 279.594 86.1902 280.954 88.4838C282.409 91.085 283.113 94.0373 282.987 97.0133H271.066C271.091 96.0676 270.94 95.1254 270.62 94.2349C270.314 93.434 269.782 92.7391 269.088 92.2346C268.25 91.7274 267.282 91.4763 266.303 91.5122C265.696 91.4639 265.086 91.5511 264.518 91.7674C263.949 91.9837 263.436 92.3236 263.016 92.7625C262.256 93.7242 261.783 94.8796 261.651 96.0966C261.419 97.6322 261.307 99.1835 261.317 100.736V101.431C261.31 102.992 261.413 104.552 261.623 106.099C261.745 107.315 262.23 108.467 263.016 109.405C263.445 109.843 263.963 110.185 264.534 110.41C265.105 110.635 265.717 110.738 266.331 110.711Z" fill="#FAFAFA"/>
<path d="M300.118 120.24H287.332V66.0056H300.118V120.24ZM295.689 100.235C295.602 96.9069 296.17 93.5937 297.36 90.4831C298.351 87.8616 300.024 85.5506 302.207 83.7873C304.302 82.1744 306.886 81.3219 309.533 81.3701C311.859 81.3241 314.161 81.8388 316.245 82.8704C318.268 83.9385 319.876 85.6497 320.813 87.7326C322.022 90.6043 322.583 93.706 322.457 96.8179V120.24H309.644V96.7345C309.7 95.6386 309.5 94.5445 309.059 93.5393C308.685 92.84 308.073 92.2977 307.332 92.0112C306.435 91.7095 305.492 91.5685 304.546 91.5946C303.458 91.5492 302.372 91.7485 301.371 92.1779C300.607 92.5438 299.975 93.1357 299.56 93.8729C299.118 94.74 298.844 95.6826 298.753 96.6512C298.625 97.7953 298.56 98.9453 298.558 100.096L295.689 100.235Z" fill="#FAFAFA"/>
<path d="M341.481 120.239H328.752V82.0639H340.618L341.481 92.2606V120.239ZM352.289 94.2055L350.311 94.011H348.278C346.791 93.9592 345.308 94.1853 343.905 94.6778C342.864 95.0742 342.002 95.8346 341.481 96.8172C340.944 98.0116 340.695 99.3156 340.757 100.624L338.557 98.7343C338.494 95.657 338.927 92.5896 339.838 89.6489C340.537 87.3487 341.812 85.2642 343.543 83.592C345.054 82.1906 347.05 81.4244 349.113 81.4526C349.698 81.4526 350.311 81.4526 350.896 81.4526C351.438 81.4931 351.972 81.6052 352.484 81.786L352.289 94.2055Z" fill="#FAFAFA"/>
<path d="M355.186 100.819C355.131 97.3655 355.864 93.9451 357.33 90.8163C358.683 87.9484 360.853 85.542 363.569 83.8982C366.664 82.1205 370.196 81.2446 373.764 81.3699C377.358 81.2511 380.916 82.126 384.043 83.8982C386.76 85.5492 388.937 87.9528 390.31 90.8163C391.744 93.9538 392.457 97.371 392.399 100.819V101.513C392.454 104.952 391.74 108.359 390.31 111.488C388.954 114.362 386.773 116.77 384.043 118.406C380.948 120.183 377.416 121.059 373.848 120.934C370.261 121.062 366.71 120.186 363.597 118.406C360.861 116.778 358.677 114.368 357.33 111.488C355.868 108.367 355.135 104.957 355.186 101.513V100.819ZM367.971 101.513C367.946 103.091 368.104 104.667 368.444 106.209C368.675 107.464 369.288 108.618 370.199 109.515C371.211 110.375 372.522 110.804 373.848 110.71C375.156 110.795 376.446 110.366 377.441 109.515C378.332 108.603 378.941 107.456 379.196 106.209C379.522 104.665 379.681 103.091 379.669 101.513V100.819C379.678 99.2595 379.519 97.7039 379.196 96.1786C378.934 94.9257 378.326 93.7709 377.441 92.8445C376.943 92.4013 376.361 92.0623 375.73 91.8475C375.098 91.6328 374.43 91.5467 373.764 91.5943C373.112 91.5517 372.458 91.6404 371.84 91.8552C371.223 92.0699 370.655 92.4064 370.171 92.8445C369.285 93.7662 368.685 94.9242 368.444 96.1786C368.107 97.7018 367.948 99.2589 367.971 100.819V101.513Z" fill="#FAFAFA"/>
<path d="M410.225 120.24H397.468V82.0647H409.417L410.225 90.2054V120.24ZM405.796 100.235C405.714 96.9097 406.271 93.5991 407.44 90.4831C408.411 87.8212 410.133 85.4961 412.398 83.7873C414.783 82.1198 417.648 81.2714 420.559 81.3701C422.039 81.3097 423.515 81.5549 424.896 82.0903C426.276 82.6258 427.531 83.44 428.581 84.4819C430.892 87.3869 431.99 91.0693 431.645 94.7618V120.24H418.888V96.5678C418.943 95.4639 418.782 94.3599 418.414 93.3172C418.287 93.0046 418.098 92.7206 417.859 92.482C417.62 92.2434 417.335 92.0551 417.022 91.928C416.285 91.6883 415.512 91.5755 414.738 91.5946C413.858 91.5803 412.988 91.7805 412.203 92.1779C411.433 92.578 410.773 93.16 410.281 93.8729C409.693 94.7063 409.285 95.6524 409.083 96.6513C408.792 97.7762 408.651 98.9347 408.665 100.096L405.796 100.235ZM426.687 100.68C426.619 97.2715 427.147 93.8775 428.247 90.6498C429.16 87.9568 430.845 85.59 433.094 83.8428C435.426 82.1272 438.275 81.2552 441.171 81.3701C443.316 81.3198 445.439 81.7969 447.355 82.7593C449.26 83.799 450.754 85.455 451.589 87.4546C452.723 90.3061 453.245 93.3636 453.121 96.4289V120.24H440.336V96.5678C440.393 95.5068 440.222 94.4457 439.834 93.456C439.707 93.1435 439.518 92.8596 439.279 92.621C439.04 92.3824 438.755 92.194 438.441 92.0668C437.734 91.8262 436.989 91.7133 436.241 91.7335C435.273 91.7012 434.313 91.9214 433.456 92.3724C432.683 92.8335 432.04 93.4838 431.589 94.2617C431.071 95.1223 430.695 96.0604 430.475 97.0401C430.22 98.2738 430.098 99.5314 430.113 100.791L426.687 100.68Z" fill="#FAFAFA"/>
<path d="M480.612 103.679H475.71C474.948 103.582 474.174 103.682 473.462 103.969C472.75 104.256 472.124 104.721 471.643 105.319C470.964 106.331 470.596 107.518 470.585 108.736C470.575 109.135 470.658 109.53 470.827 109.892C470.996 110.253 471.247 110.571 471.56 110.82C472.245 111.369 473.104 111.654 473.983 111.625C475.044 111.657 476.096 111.428 477.047 110.959C477.788 110.602 478.437 110.079 478.941 109.431C479.305 108.996 479.494 108.441 479.47 107.875L482.256 113.209C481.786 114.162 481.265 115.09 480.696 115.987C480.106 116.92 479.384 117.763 478.551 118.488C477.636 119.283 476.577 119.896 475.431 120.294C474.001 120.796 472.49 121.031 470.975 120.989C468.729 121.009 466.509 120.515 464.485 119.544C462.564 118.626 460.914 117.228 459.694 115.487C458.487 113.7 457.865 111.585 457.911 109.431C457.841 107.654 458.199 105.887 458.955 104.277C459.711 102.667 460.843 101.261 462.256 100.178C466.323 97.6181 471.111 96.4389 475.905 96.8167H480.64L480.612 103.679ZM479.025 95.1496C479.096 93.9627 478.783 92.7845 478.133 91.7878C477.757 91.3456 477.28 91.0006 476.742 90.7829C476.203 90.5651 475.62 90.481 475.041 90.5375C474.367 90.5205 473.695 90.6337 473.064 90.8709C472.547 91.1044 472.124 91.506 471.866 92.01C471.585 92.6678 471.452 93.3791 471.476 94.0938H458.747C458.702 91.73 459.436 89.4169 460.836 87.509C462.348 85.4917 464.392 83.9334 466.741 83.008C469.585 81.8508 472.639 81.2928 475.71 81.3689C478.571 81.3028 481.415 81.8228 484.066 82.8969C486.395 83.8445 488.399 85.4468 489.832 87.509C491.316 89.8058 492.055 92.5026 491.949 95.233V110.292C491.881 112.293 492.03 114.296 492.394 116.265C492.645 117.428 493.058 118.55 493.62 119.599V120.238H480.891C480.228 118.784 479.786 117.239 479.582 115.654C479.283 113.817 479.134 111.958 479.136 110.097L479.025 95.1496Z" fill="#FAFAFA"/>
</svg>
