<svg width="973" height="194" viewBox="0 0 973 194" fill="none" xmlns="http://www.w3.org/2000/svg">
<g clip-path="url(#clip0_28_116)">
<rect y="1.045" width="191.232" height="191.232" rx="57.9966" fill="url(#paint0_linear_28_116)"/>
<path fill-rule="evenodd" clip-rule="evenodd" d="M95.3839 1.27707C95.3839 1.1489 95.4878 1.045 95.6159 1.045C95.7441 1.045 95.848 1.1489 95.848 1.27707V6.9131C95.848 10.1478 98.469 12.7509 101.695 12.9819C106.966 13.3594 112.102 14.2237 117.059 15.5303C121.99 16.8301 127.179 13.3296 127.179 8.22988V1.27708C127.179 1.1489 127.283 1.045 127.411 1.045C127.539 1.045 127.643 1.1489 127.643 1.27708V11.8616C127.643 16.2394 130.314 20.1279 134.199 22.144C139.189 24.733 143.886 27.8084 148.227 31.3076C149.433 32.2791 150.924 32.8392 152.472 32.8392C156.062 32.8392 158.973 29.9283 158.973 26.3376V1.27708C158.973 1.1489 159.077 1.045 159.205 1.045C159.334 1.045 159.438 1.1489 159.438 1.27708V16.9421C159.438 25.7218 166.555 32.8392 175.335 32.8392H191C191.128 32.8392 191.232 32.9431 191.232 33.0713C191.232 33.1994 191.128 33.3034 191 33.3034H165.939C162.348 33.3034 159.438 36.2142 159.438 39.8048C159.438 41.3529 159.998 42.8439 160.969 44.0492C164.468 48.3901 167.544 53.0869 170.133 58.0767C172.149 61.9627 176.037 64.6334 180.415 64.6334H191C191.128 64.6334 191.232 64.7373 191.232 64.8655C191.232 64.9936 191.128 65.0975 191 65.0975H184.047C178.947 65.0975 175.447 70.286 176.747 75.2173C178.053 80.1738 178.918 85.3097 179.295 90.5803C179.526 93.8067 182.129 96.4276 185.364 96.4276H191C191.128 96.4276 191.232 96.5315 191.232 96.6597C191.232 96.7878 191.128 96.8917 191 96.8917H185.364C182.129 96.8917 179.526 99.5127 179.295 102.739C178.918 108.01 178.054 113.146 176.747 118.103C175.448 123.034 178.948 128.222 184.047 128.222H191C191.128 128.222 191.232 128.326 191.232 128.454C191.232 128.582 191.128 128.686 191 128.686H180.416C176.038 128.686 172.15 131.357 170.134 135.242C167.545 140.234 164.469 144.932 160.969 149.274C159.997 150.479 159.438 151.969 159.438 153.517C159.438 157.106 162.347 160.016 165.937 160.016H191C191.128 160.016 191.232 160.12 191.232 160.248C191.232 160.376 191.128 160.48 191 160.48H175.335C166.555 160.48 159.438 167.598 159.438 176.377V192.045C159.438 192.173 159.334 192.277 159.205 192.277C159.077 192.277 158.973 192.173 158.973 192.045V166.979C158.973 163.39 156.064 160.48 152.474 160.48C150.927 160.48 149.436 161.04 148.232 162.011C143.889 165.512 139.191 168.588 134.199 171.178C130.313 173.194 127.643 177.083 127.643 181.461V192.045C127.643 192.173 127.539 192.277 127.411 192.277C127.283 192.277 127.179 192.173 127.179 192.045V185.092C127.179 179.993 121.99 176.492 117.059 177.792C112.102 179.099 106.966 179.963 101.695 180.34C98.469 180.571 95.848 183.174 95.848 186.409V192.045C95.848 192.173 95.7441 192.277 95.6159 192.277C95.4878 192.277 95.3839 192.173 95.3839 192.045V186.409C95.3839 183.174 92.7629 180.571 89.5366 180.34C84.2657 179.963 79.1296 179.099 74.173 177.792C69.2417 176.492 64.0535 179.993 64.0535 185.092V192.045C64.0535 192.173 63.9496 192.277 63.8214 192.277C63.6932 192.277 63.5893 192.173 63.5893 192.045V181.461C63.5893 177.083 60.9186 173.194 57.0327 171.178C52.0412 168.588 47.3428 165.512 43.0005 162.011C41.7957 161.04 40.3052 160.48 38.7576 160.48C35.1684 160.48 32.2587 163.39 32.2587 166.979V192.045C32.2587 192.173 32.1548 192.277 32.0266 192.277C31.8985 192.277 31.7946 192.173 31.7946 192.045V176.377C31.7946 167.598 24.6771 160.48 15.8973 160.48H0.232084C0.103907 160.48 0 160.376 0 160.248C0 160.12 0.103908 160.016 0.232084 160.016H25.2952C28.8847 160.016 31.7946 157.106 31.7946 153.517C31.7946 151.969 31.2346 150.479 30.2634 149.274C26.7634 144.932 23.6873 140.234 21.0979 135.242C19.0819 131.357 15.1936 128.686 10.816 128.686H0.232084C0.103907 128.686 0 128.582 0 128.454C0 128.326 0.103908 128.222 0.232085 128.222H7.18465C12.2841 128.222 15.7845 123.034 14.4848 118.103C13.1784 113.146 12.3141 108.01 11.9367 102.739C11.7057 99.5127 9.10265 96.8917 5.86801 96.8917H0.232084C0.103907 96.8917 0 96.7878 0 96.6597C0 96.5315 0.103907 96.4276 0.232083 96.4276H5.86811C9.10273 96.4276 11.7058 93.8067 11.9369 90.5803C12.3144 85.3097 13.1788 80.1738 14.4854 75.2173C15.7853 70.286 12.2848 65.0975 7.18495 65.0975H0.232075C0.103904 65.0975 0 64.9936 0 64.8655C0 64.7373 0.103904 64.6334 0.232075 64.6334H10.8169C15.1947 64.6334 19.0833 61.9626 21.0995 58.0767C23.6884 53.0869 26.7639 48.3901 30.2629 44.0492C31.2344 42.8439 31.7946 41.3529 31.7946 39.8048C31.7946 36.2142 28.8837 33.3033 25.2931 33.3033H0.232078C0.103905 33.3033 0 33.1994 0 33.0713C0 32.9431 0.103905 32.8392 0.232078 32.8392H15.8975C24.6772 32.8392 31.7946 25.7218 31.7946 16.9421V1.27708C31.7946 1.1489 31.8985 1.045 32.0266 1.045C32.1548 1.045 32.2587 1.1489 32.2587 1.27708V26.3376C32.2587 29.9283 35.1696 32.8392 38.7603 32.8392C40.3083 32.8392 41.7994 32.2791 43.0046 31.3076C47.3457 27.8084 52.0427 24.733 57.0326 22.144C60.9186 20.1279 63.5893 16.2394 63.5893 11.8616V1.27708C63.5893 1.1489 63.6932 1.045 63.8214 1.045C63.9496 1.045 64.0535 1.1489 64.0535 1.27708V8.22988C64.0535 13.3296 69.2418 16.8301 74.1731 15.5303C79.1296 14.2237 84.2657 13.3594 89.5365 12.9819C92.7629 12.7509 95.3839 10.1478 95.3839 6.9131V1.27707ZM95.3839 23.0477C95.3839 17.6296 90.9687 13.1812 85.589 13.8255C79.9007 14.5069 74.3883 15.7606 69.111 17.5274C66.0161 18.5635 64.0535 21.5384 64.0535 24.8022C64.0535 29.2409 67.6518 32.8392 72.0905 32.8392H85.5924C91.0001 32.8392 95.3839 28.4554 95.3839 23.0477ZM63.5893 27.5407C63.5893 23.761 59.7476 21.2162 56.4125 22.9948C55.9169 23.2591 55.4242 23.5283 54.9346 23.8022C50.2077 26.4472 52.3639 32.8392 57.7806 32.8392H58.2908C61.2171 32.8392 63.5893 30.467 63.5893 27.5407ZM36.2928 37.3374C37.7393 35.8908 36.7486 33.3033 34.7028 33.3033H34.5334C33.2771 33.3033 32.2587 34.3218 32.2587 35.578V35.7475C32.2587 37.7932 34.8462 38.7839 36.2928 37.3374ZM32.2587 48.3873C32.2587 44.5076 33.6029 40.7118 36.3329 37.9551C36.5245 37.7616 36.717 37.5691 36.9105 37.3775C39.6672 34.6475 43.4631 33.3033 47.3428 33.3033H47.9243C56.5758 33.3033 63.5893 40.3168 63.5893 48.9684C63.5893 57.6199 56.5757 64.6334 47.9241 64.6334C39.2724 64.6334 32.2587 57.6198 32.2587 48.9681V48.3873ZM31.7946 58.8247C31.7946 53.4082 25.4027 51.2519 22.7577 55.9788C22.4837 56.4683 22.2146 56.961 21.9503 57.4566C20.1716 60.7917 22.7164 64.6334 26.4961 64.6334C29.4224 64.6334 31.7946 62.2612 31.7946 59.3349V58.8247ZM23.7575 65.0975C20.4937 65.0975 17.5188 67.0601 16.4826 70.155C14.7158 75.4321 13.4621 80.9443 12.7806 86.6324C12.1362 92.0122 16.5847 96.4276 22.0029 96.4276C27.4107 96.4276 31.7946 92.0437 31.7946 86.6359V73.1346C31.7946 68.6959 28.1962 65.0975 23.7575 65.0975ZM22.0027 96.8917C16.5845 96.8917 12.136 101.307 12.7803 106.687C13.4615 112.375 14.7149 117.887 16.4814 123.164C17.5176 126.259 20.4928 128.222 23.7569 128.222C28.196 128.222 31.7946 124.623 31.7946 120.184V106.684C31.7946 101.276 27.4106 96.8917 22.0027 96.8917ZM26.4955 128.686C22.7154 128.686 20.1704 132.528 21.9491 135.863C22.2134 136.359 22.4826 136.852 22.7566 137.342C25.4019 142.069 31.7946 139.913 31.7946 134.495V133.985C31.7946 131.058 29.4221 128.686 26.4955 128.686ZM36.2913 155.983C34.8453 154.537 32.2587 155.528 32.2587 157.573V157.742C32.2587 158.998 33.2768 160.016 34.5326 160.016H34.7019C36.7469 160.016 37.7373 157.43 36.2913 155.983ZM47.3407 160.016C43.4602 160.016 39.6634 158.671 36.9064 155.941C36.7145 155.751 36.5235 155.56 36.3334 155.368C33.6031 152.611 32.2587 148.814 32.2587 144.934V144.351C32.2587 135.7 39.2725 128.686 47.9242 128.686C56.5757 128.686 63.5893 135.699 63.5893 144.351C63.5893 153.003 56.5758 160.016 47.9243 160.016H47.3407ZM57.7793 160.48C52.3616 160.48 50.2048 166.873 54.9326 169.519C55.4224 169.793 55.9152 170.062 56.411 170.327C59.7468 172.106 63.5893 169.56 63.5893 165.78C63.5893 162.853 61.2166 160.48 58.2897 160.48H57.7793ZM64.0535 168.519C64.0535 171.783 66.0165 174.759 69.1121 175.795C74.3886 177.562 79.9001 178.815 85.5876 179.497C90.968 180.141 95.3839 175.692 95.3839 170.273C95.3839 164.865 90.9994 160.48 85.5909 160.48H72.0922C67.6525 160.48 64.0535 164.079 64.0535 168.519ZM95.848 170.273C95.848 175.692 100.264 180.141 105.644 179.497C111.332 178.815 116.843 177.562 122.12 175.795C125.216 174.759 127.179 171.783 127.179 168.519C127.179 164.079 123.58 160.48 119.14 160.48H105.641C100.232 160.48 95.848 164.865 95.848 170.273ZM127.643 165.78C127.643 169.56 131.485 172.106 134.821 170.327C135.317 170.062 135.81 169.793 136.299 169.519C141.027 166.873 138.87 160.48 133.453 160.48H132.942C130.016 160.48 127.643 162.853 127.643 165.78ZM154.941 155.983C153.495 157.43 154.485 160.016 156.53 160.016H156.699C157.955 160.016 158.973 158.998 158.973 157.742V157.573C158.973 155.528 156.387 154.537 154.941 155.983ZM158.973 144.934C158.973 148.814 157.629 152.611 154.899 155.368C154.709 155.56 154.518 155.751 154.326 155.941C151.569 158.671 147.772 160.016 143.891 160.016H143.308C134.656 160.016 127.643 153.003 127.643 144.351C127.643 135.699 134.656 128.686 143.308 128.686C151.96 128.686 158.973 135.7 158.973 144.351V144.934ZM159.438 134.495C159.438 139.913 165.83 142.069 168.475 137.342C168.749 136.852 169.019 136.359 169.283 135.863C171.062 132.528 168.517 128.686 164.737 128.686C161.81 128.686 159.438 131.058 159.438 133.985V134.495ZM167.475 128.222C170.739 128.222 173.714 126.259 174.751 123.164C176.517 117.887 177.771 112.375 178.452 106.687C179.096 101.307 174.648 96.8917 169.229 96.8917C163.821 96.8917 159.438 101.276 159.438 106.684V120.184C159.438 124.623 163.036 128.222 167.475 128.222ZM169.229 96.4276C174.647 96.4276 179.096 92.0122 178.451 86.6324C177.77 80.9443 176.516 75.4321 174.749 70.155C173.713 67.0601 170.738 65.0975 167.475 65.0975C163.036 65.0975 159.438 68.6959 159.438 73.1346V86.6359C159.438 92.0437 163.821 96.4276 169.229 96.4276ZM164.736 64.6334C168.516 64.6334 171.06 60.7917 169.282 57.4566C169.018 56.961 168.748 56.4683 168.474 55.9788C165.829 51.2519 159.438 53.4082 159.438 58.8247V59.3349C159.438 62.2612 161.81 64.6334 164.736 64.6334ZM154.939 37.3374C156.386 38.7839 158.973 37.7932 158.973 35.7475V35.578C158.973 34.3218 157.955 33.3033 156.699 33.3033H156.529C154.484 33.3033 153.493 35.8908 154.939 37.3374ZM143.889 33.3033C147.769 33.3033 151.565 34.6475 154.322 37.3775C154.515 37.5691 154.708 37.7616 154.899 37.9551C157.629 40.7118 158.973 44.5076 158.973 48.3873V48.9681C158.973 57.6198 151.96 64.6334 143.308 64.6334C134.656 64.6334 127.643 57.6199 127.643 48.9684C127.643 40.3168 134.656 33.3033 143.308 33.3033H143.889ZM133.451 32.8392C138.868 32.8392 141.024 26.4472 136.297 23.8022C135.808 23.5283 135.315 23.2591 134.82 22.9948C131.484 21.2162 127.643 23.761 127.643 27.5407C127.643 30.467 130.015 32.8392 132.941 32.8392H133.451ZM127.179 24.8022C127.179 21.5384 125.216 18.5635 122.121 17.5274C116.844 15.7605 111.331 14.5068 105.643 13.8255C100.263 13.1812 95.848 17.6296 95.848 23.0477C95.848 28.4554 100.232 32.8392 105.64 32.8392H119.142C123.58 32.8392 127.179 29.2409 127.179 24.8022ZM64.0535 48.9684C64.0535 40.3168 71.0671 33.3033 79.7187 33.3033C88.3702 33.3033 95.3839 40.3168 95.3839 48.9684C95.3839 57.6199 88.3702 64.6334 79.7187 64.6334C71.0671 64.6334 64.0535 57.6199 64.0535 48.9684ZM127.179 48.9684C127.179 40.3168 120.165 33.3033 111.513 33.3033C102.862 33.3033 95.848 40.3168 95.848 48.9684C95.848 57.6199 102.862 64.6334 111.513 64.6334C120.165 64.6334 127.179 57.6199 127.179 48.9684ZM63.5893 112.557C63.5893 121.208 56.5756 128.222 47.924 128.222C39.2725 128.222 32.2587 121.208 32.2587 112.557C32.2587 103.905 39.2725 96.8917 47.924 96.8917C56.5756 96.8917 63.5893 103.905 63.5893 112.557ZM79.7187 128.686C71.0671 128.686 64.0535 135.699 64.0535 144.351C64.0535 153.003 71.0671 160.016 79.7187 160.016C88.3702 160.016 95.3839 153.003 95.3839 144.351C95.3839 135.699 88.3702 128.686 79.7187 128.686ZM95.3839 112.557C95.3839 121.208 88.3702 128.222 79.7187 128.222C71.0671 128.222 64.0535 121.208 64.0535 112.557C64.0535 103.905 71.0671 96.8917 79.7187 96.8917C88.3702 96.8917 95.3839 103.905 95.3839 112.557ZM111.513 128.686C102.862 128.686 95.848 135.699 95.848 144.351C95.848 153.003 102.862 160.016 111.513 160.016C120.165 160.016 127.179 153.003 127.179 144.351C127.179 135.699 120.165 128.686 111.513 128.686ZM127.179 112.557C127.179 121.208 120.165 128.222 111.513 128.222C102.862 128.222 95.848 121.208 95.848 112.557C95.848 103.905 102.862 96.8917 111.513 96.8917C120.165 96.8917 127.179 103.905 127.179 112.557ZM158.973 112.557C158.973 121.208 151.96 128.222 143.308 128.222C134.657 128.222 127.643 121.208 127.643 112.557C127.643 103.905 134.657 96.8917 143.308 96.8917C151.96 96.8917 158.973 103.905 158.973 112.557ZM64.0535 80.7626C64.0535 72.111 71.0671 65.0975 79.7187 65.0975C88.3702 65.0975 95.3839 72.111 95.3839 80.7626C95.3839 89.4141 88.3702 96.4276 79.7187 96.4276C71.0671 96.4276 64.0535 89.4141 64.0535 80.7626ZM32.2587 80.7626C32.2587 72.111 39.2725 65.0975 47.924 65.0975C56.5756 65.0975 63.5893 72.111 63.5893 80.7626C63.5893 89.4141 56.5756 96.4276 47.924 96.4276C39.2725 96.4276 32.2587 89.4141 32.2587 80.7626ZM127.179 80.7626C127.179 72.111 120.165 65.0975 111.513 65.0975C102.862 65.0975 95.848 72.111 95.848 80.7626C95.848 89.4141 102.862 96.4276 111.513 96.4276C120.165 96.4276 127.179 89.4141 127.179 80.7626ZM143.308 96.4276C134.657 96.4276 127.643 89.4141 127.643 80.7626C127.643 72.111 134.657 65.0975 143.308 65.0975C151.96 65.0975 158.973 72.111 158.973 80.7626C158.973 89.4141 151.96 96.4276 143.308 96.4276Z" fill="#F7F8FA" fill-opacity="0.1"/>
<path d="M115.8 92.8199C126.338 92.8201 134.874 101.355 134.874 111.894C134.874 115.418 133.875 118.704 132.159 121.516L131.862 122.002L144.473 134.614L138.518 140.569L126.31 128.36L125.912 127.962L125.429 128.25C122.606 129.924 119.317 130.969 115.8 130.969C105.261 130.969 96.7245 122.433 96.7245 111.894C96.7247 101.355 105.261 92.8199 115.8 92.8199ZM86.8163 102.747C85.6553 106.339 82.5258 119.14 92.1541 130.969H47.2264V121.794C47.2264 118.69 48.8183 115.916 51.5428 113.477C54.2715 111.035 58.082 108.98 62.3592 107.342C70.5027 104.224 80.1661 102.679 86.8163 102.747ZM115.8 101.27C109.955 101.27 105.176 106.049 105.176 111.894C105.176 117.739 109.955 122.518 115.8 122.518C121.644 122.518 126.424 117.739 126.424 111.894C126.423 106.05 121.644 101.27 115.8 101.27ZM86.1004 53.2212C96.635 53.2213 105.175 61.7609 105.176 72.2954C105.176 82.8302 96.6352 91.3706 86.1004 91.3706C75.5656 91.3706 67.0252 82.8302 67.0252 72.2954C67.0255 61.7609 75.5658 53.2212 86.1004 53.2212Z" fill="url(#paint1_linear_28_116)" fill-opacity="0.8" stroke="white" stroke-width="1.44873"/>
</g>
<path d="M244.926 45.9531H282.788C290.189 45.9531 296.62 47.0544 302.082 49.2569C307.545 51.4595 311.752 54.7193 314.703 59.0363C317.699 63.3533 319.196 68.6835 319.196 75.0269C319.196 80.5333 318.337 85.1367 316.619 88.837C314.901 92.5373 312.5 95.5989 309.417 98.0217C306.377 100.4 302.831 102.361 298.779 103.903L291.18 108.198H259.397L259.265 90.2907H282.788C285.739 90.2907 288.184 89.7621 290.122 88.7048C292.061 87.6476 293.514 86.1499 294.484 84.2116C295.497 82.2293 296.003 79.8726 296.003 77.1414C296.003 74.3662 295.497 71.9874 294.484 70.0051C293.47 68.0228 291.973 66.503 289.99 65.4458C288.052 64.3885 285.651 63.8599 282.788 63.8599H268.119V142.161H244.926V45.9531ZM297.589 142.161L276.312 99.6075L300.893 99.4754L322.434 141.17V142.161H297.589ZM366.772 143.483C360.957 143.483 355.759 142.58 351.177 140.773C346.596 138.923 342.72 136.39 339.548 133.175C336.42 129.959 334.02 126.259 332.346 122.074C330.716 117.889 329.901 113.462 329.901 108.792V106.281C329.901 101.039 330.628 96.1935 332.081 91.7444C333.535 87.2511 335.693 83.3306 338.557 79.9827C341.42 76.6348 345.01 74.0358 349.327 72.1856C353.644 70.2914 358.666 69.3443 364.393 69.3443C369.459 69.3443 373.996 70.1593 378.005 71.7892C382.013 73.4191 385.405 75.7538 388.181 78.7933C391 81.8328 393.136 85.5111 394.59 89.8281C396.088 94.1452 396.837 98.9908 396.837 104.365V113.418H338.425V99.4754H375.097V97.7574C375.141 95.3786 374.723 93.3522 373.842 91.6783C373.005 90.0043 371.771 88.7269 370.142 87.8458C368.512 86.9648 366.529 86.5243 364.195 86.5243C361.772 86.5243 359.767 87.0529 358.182 88.1101C356.64 89.1674 355.428 90.6211 354.547 92.4712C353.71 94.2773 353.116 96.3698 352.763 98.7485C352.411 101.127 352.235 103.638 352.235 106.281V108.792C352.235 111.435 352.587 113.836 353.292 115.995C354.041 118.153 355.098 120.003 356.464 121.545C357.873 123.043 359.547 124.21 361.485 125.047C363.468 125.884 365.714 126.303 368.225 126.303C371.265 126.303 374.26 125.73 377.212 124.585C380.163 123.439 382.696 121.545 384.811 118.902L394.92 130.928C393.467 132.998 391.396 135.003 388.709 136.941C386.066 138.879 382.894 140.465 379.194 141.698C375.494 142.888 371.353 143.483 366.772 143.483ZM436.086 126.303C438.157 126.303 439.919 125.928 441.372 125.179C442.87 124.386 443.993 123.285 444.742 121.875C445.535 120.422 445.91 118.682 445.866 116.655H466.812C466.856 122.03 465.535 126.743 462.847 130.796C460.204 134.804 456.592 137.932 452.011 140.179C447.474 142.381 442.342 143.483 436.615 143.483C431.02 143.483 426.131 142.58 421.946 140.773C417.761 138.923 414.259 136.368 411.44 133.108C408.664 129.805 406.572 125.95 405.162 121.545C403.797 117.14 403.114 112.36 403.114 107.206V105.687C403.114 100.533 403.797 95.753 405.162 91.3479C406.572 86.8987 408.664 83.0442 411.44 79.7845C414.259 76.4806 417.739 73.9256 421.88 72.1195C426.065 70.2694 430.932 69.3443 436.483 69.3443C442.43 69.3443 447.672 70.4676 452.209 72.7142C456.79 74.9608 460.381 78.2206 462.98 82.4936C465.579 86.7666 466.856 91.9426 466.812 98.0217H445.866C445.91 95.8632 445.579 93.9249 444.874 92.2069C444.17 90.4889 443.068 89.1233 441.571 88.1101C440.117 87.0529 438.245 86.5243 435.954 86.5243C433.663 86.5243 431.813 87.0309 430.404 88.0441C428.994 89.0572 427.915 90.4669 427.166 92.273C426.461 94.035 425.977 96.0614 425.712 98.3521C425.492 100.643 425.382 103.088 425.382 105.687V107.206C425.382 109.849 425.492 112.338 425.712 114.673C425.977 116.964 426.483 118.99 427.232 120.752C427.981 122.47 429.06 123.836 430.47 124.849C431.879 125.818 433.752 126.303 436.086 126.303ZM498.793 88.3744V142.161H476.525V70.6658H497.34L498.793 88.3744ZM519.938 70.1372L519.541 90.8193C518.66 90.7312 517.471 90.6211 515.973 90.4889C514.475 90.3568 513.22 90.2907 512.207 90.2907C509.608 90.2907 507.361 90.599 505.467 91.2158C503.617 91.7884 502.075 92.6694 500.842 93.8588C499.652 95.0042 498.771 96.4579 498.199 98.2199C497.67 99.982 497.428 102.03 497.472 104.365L493.441 101.722C493.441 96.9204 493.904 92.5593 494.829 88.6388C495.798 84.6741 497.163 81.2602 498.925 78.3968C500.687 75.4895 502.824 73.2649 505.335 71.7231C507.846 70.1372 510.665 69.3443 513.793 69.3443C514.894 69.3443 515.973 69.4104 517.03 69.5425C518.132 69.6747 519.101 69.8729 519.938 70.1372ZM569.363 124.783V70.6658H591.697V142.161H570.817L569.363 124.783ZM571.478 110.246L577.293 110.114C577.293 114.915 576.72 119.365 575.575 123.461C574.429 127.514 572.733 131.038 570.487 134.034C568.284 137.029 565.553 139.364 562.293 141.038C559.077 142.668 555.355 143.483 551.126 143.483C547.602 143.483 544.364 142.998 541.413 142.029C538.505 141.016 535.995 139.452 533.88 137.337C531.766 135.179 530.114 132.426 528.924 129.078C527.779 125.686 527.206 121.633 527.206 116.92V70.6658H549.474V117.052C549.474 118.638 549.672 120.003 550.069 121.149C550.465 122.294 551.038 123.263 551.787 124.056C552.536 124.805 553.461 125.377 554.562 125.774C555.707 126.126 557.007 126.303 558.461 126.303C561.809 126.303 564.43 125.598 566.324 124.188C568.218 122.778 569.54 120.862 570.288 118.439C571.081 116.017 571.478 113.285 571.478 110.246ZM627.511 70.6658V142.161H605.177V70.6658H627.511ZM603.855 52.2304C603.855 49.0587 605.001 46.4597 607.291 44.4333C609.582 42.407 612.556 41.3938 616.212 41.3938C619.868 41.3938 622.842 42.407 625.132 44.4333C627.423 46.4597 628.568 49.0587 628.568 52.2304C628.568 55.4021 627.423 58.0011 625.132 60.0275C622.842 62.0538 619.868 63.067 616.212 63.067C612.556 63.067 609.582 62.0538 607.291 60.0275C605.001 58.0011 603.855 55.4021 603.855 52.2304ZM678.919 70.6658V86.1278H635.837V70.6658H678.919ZM644.889 52.8912H667.157V118.836C667.157 120.73 667.377 122.206 667.818 123.263C668.258 124.276 669.007 125.003 670.064 125.444C671.166 125.84 672.619 126.038 674.426 126.038C675.703 126.038 676.76 126.016 677.597 125.972C678.434 125.884 679.227 125.774 679.976 125.642V141.566C678.082 142.183 676.1 142.646 674.029 142.954C671.959 143.306 669.756 143.483 667.421 143.483C662.664 143.483 658.589 142.734 655.197 141.236C651.849 139.738 649.294 137.381 647.532 134.166C645.77 130.95 644.889 126.765 644.889 121.611V52.8912Z" fill="#1D2433"/>
<path d="M705.794 142.161V53.618H766.453V64.8511H717.688V130.928H766.453V142.161H705.794ZM713.327 102.383V91.1497H760.77V102.383H713.327ZM803.437 144.143C797.799 144.143 792.645 142.734 787.975 139.914C783.306 137.007 779.561 132.998 776.742 127.888C774.011 122.778 772.645 116.876 772.645 110.18C772.645 102.867 774.011 96.568 776.742 91.2818C779.561 85.9957 783.394 81.943 788.239 79.1237C793.085 76.2163 798.503 74.7626 804.494 74.7626C808.283 74.7626 812.115 75.6877 815.992 77.5378C819.956 79.2999 823.348 81.7668 826.168 84.9385V76.0842H837.004V142.161H826.168V130.928C823.877 134.452 820.749 137.536 816.785 140.179C812.908 142.822 808.459 144.143 803.437 144.143ZM805.155 133.571C809.208 133.571 812.82 132.514 815.992 130.399C819.163 128.285 821.674 125.377 823.524 121.677C825.375 117.889 826.256 113.66 826.168 108.99L826.035 96.3037C823.304 92.8677 820.353 90.1806 817.181 88.2423C814.098 86.304 810.529 85.3349 806.477 85.3349C801.719 85.3349 797.666 86.5243 794.318 88.9031C790.971 91.2818 788.372 94.3654 786.521 98.1538C784.759 101.854 783.878 105.863 783.878 110.18C783.878 114.409 784.759 118.329 786.521 121.942C788.283 125.466 790.75 128.285 793.922 130.399C797.182 132.514 800.926 133.571 805.155 133.571ZM865.53 144.143C862.976 144.143 860.288 143.791 857.469 143.086C854.738 142.469 852.271 141.721 850.068 140.839C847.866 139.87 846.236 139.033 845.179 138.329V126.699C846.412 127.58 848.13 128.593 850.333 129.739C852.623 130.796 855.046 131.721 857.601 132.514C860.156 133.219 862.535 133.571 864.738 133.571C868.878 133.571 872.138 132.646 874.517 130.796C876.984 128.946 878.217 126.655 878.217 123.924C878.217 121.809 877.38 120.135 875.706 118.902C874.12 117.669 871.786 116.479 868.702 115.334L858.923 111.766C853.813 109.827 850.421 107.405 848.747 104.497C847.073 101.502 846.236 98.1098 846.236 94.3214C846.236 90.533 847.161 87.1851 849.011 84.2777C850.95 81.3703 853.681 79.0796 857.205 77.4057C860.729 75.6436 864.826 74.7626 869.495 74.7626C873.372 74.7626 876.984 75.3353 880.332 76.4806C883.68 77.5378 886.102 78.6391 887.6 79.7845V91.414C885.75 90.0043 883.239 88.6388 880.067 87.3172C876.896 85.9957 873.636 85.3349 870.288 85.3349C866.147 85.3349 863.02 86.304 860.905 88.2423C858.879 90.1806 857.866 92.2069 857.866 94.3214C857.866 95.9953 858.438 97.7133 859.584 99.4754C860.817 101.149 862.931 102.515 865.927 103.572L877.028 107.537C881.345 109.034 884.561 111.193 886.675 114.012C888.79 116.832 889.847 120.135 889.847 123.924C889.847 127.624 888.79 131.016 886.675 134.1C884.649 137.183 881.785 139.65 878.085 141.5C874.473 143.262 870.288 144.143 865.53 144.143ZM926.567 144.143C921.545 144.143 916.919 143.262 912.69 141.5C908.55 139.65 904.893 137.139 901.722 133.967C898.638 130.708 896.259 127.007 894.585 122.867C892.911 118.638 892.074 114.188 892.074 109.519C892.074 103.264 893.44 97.4931 896.171 92.2069C898.902 86.9208 902.647 82.6918 907.404 79.5201C912.25 76.3485 917.756 74.7626 923.924 74.7626C930.707 74.7626 936.346 76.1723 940.839 78.9915C945.332 81.8108 948.68 85.6433 950.883 90.4889C953.174 95.3345 954.319 100.797 954.319 106.876V113.352H902.25V104.101H943.614C943.174 99.7837 941.941 96.2596 939.914 93.5284C937.976 90.7973 935.597 88.7709 932.778 87.4494C929.959 86.0397 927.007 85.3349 923.924 85.3349C919.695 85.3349 916.038 86.4802 912.955 88.7709C909.871 90.9735 907.492 93.9249 905.818 97.6252C904.145 101.237 903.308 105.202 903.308 109.519C903.308 113.748 904.233 117.713 906.083 121.413C908.021 125.025 910.752 127.977 914.276 130.267C917.8 132.47 921.897 133.571 926.567 133.571C931.324 133.571 935.729 132.382 939.782 130.003C943.923 127.536 947.403 124.849 950.222 121.942V133.703C948.989 135.201 947.139 136.787 944.672 138.461C942.293 140.047 939.518 141.368 936.346 142.425C933.262 143.571 930.003 144.143 926.567 144.143Z" fill="#1D2433" fill-opacity="0.65"/>
<defs>
<linearGradient id="paint0_linear_28_116" x1="15.936" y1="27.1221" x2="191.232" y2="192.277" gradientUnits="userSpaceOnUse">
<stop stop-color="#302FEB"/>
<stop offset="1" stop-color="#302FEB"/>
</linearGradient>
<linearGradient id="paint1_linear_28_116" x1="46.5018" y1="52.4966" x2="109.345" y2="162.287" gradientUnits="userSpaceOnUse">
<stop stop-color="white" stop-opacity="0.64"/>
<stop offset="1" stop-color="white" stop-opacity="0.8"/>
</linearGradient>
<clipPath id="clip0_28_116">
<rect y="1.045" width="191.232" height="191.232" rx="57.9966" fill="white"/>
</clipPath>
</defs>
</svg>
