<svg width="100" height="100" viewBox="0 0 100 100" fill="none" xmlns="http://www.w3.org/2000/svg">
<path d="M66.6376 56.2402H33.667V71.7489H66.6376V56.2402Z" fill="#F68C3C"/>
<path d="M33.6664 71.7507C42.871 71.7507 50.3327 64.2012 50.3327 54.8885C50.3327 45.5758 42.871 38.0264 33.6664 38.0264C24.4618 38.0264 17 45.5758 17 54.8885C17 64.2012 24.4618 71.7507 33.6664 71.7507Z" fill="#F68B3C"/>
<path d="M66.9994 71.7507C76.204 71.7507 83.6658 64.2012 83.6658 54.8885C83.6658 45.5758 76.204 38.0264 66.9994 38.0264C57.7948 38.0264 50.333 45.5758 50.333 54.8885C50.333 64.2012 57.7948 71.7507 66.9994 71.7507Z" fill="#F68C3C"/>
<path d="M50.3334 61.7243C59.5379 61.7243 66.9997 54.1749 66.9997 44.8622C66.9997 35.5494 59.5379 28 50.3334 28C41.1288 28 33.667 35.5494 33.667 44.8622C33.667 54.1749 41.1288 61.7243 50.3334 61.7243Z" fill="#F68C3C"/>
<path d="M56.9809 44.1079H43.9845C43.6517 44.1079 43.3818 44.3809 43.3818 44.7176V64.2512C43.3818 64.5879 43.6517 64.8609 43.9845 64.8609H56.9809C57.3137 64.8609 57.5835 64.5879 57.5835 64.2512V44.7176C57.5835 44.3809 57.3137 44.1079 56.9809 44.1079Z" fill="white" stroke="#F48331" stroke-width="0.770969" stroke-miterlimit="10"/>
<path d="M68.961 46.8914C68.9405 46.282 68.6868 45.7045 68.2534 45.2807C67.8201 44.857 67.2409 44.6201 66.6382 44.6201C66.0356 44.6201 65.4564 44.857 65.0231 45.2807C64.5897 45.7045 64.336 46.282 64.3154 46.8914C64.3154 46.9133 64.3154 46.9324 64.3154 46.9543V62.5997C64.336 63.2091 64.5897 63.7866 65.0231 64.2104C65.4564 64.6341 66.0356 64.871 66.6382 64.871C67.2409 64.871 67.8201 64.6341 68.2534 64.2104C68.6868 63.7866 68.9405 63.2091 68.961 62.5997V62.5997V46.9543C68.9624 46.9334 68.9624 46.9123 68.961 46.8914Z" fill="white" stroke="#F48331" stroke-width="0.770969" stroke-miterlimit="10"/>
<path d="M63.2724 46.8916C63.2436 46.2876 62.9861 45.718 62.5534 45.3008C62.1207 44.8836 61.5459 44.6509 60.9482 44.6509C60.3505 44.6509 59.7757 44.8836 59.343 45.3008C58.9103 45.718 58.6528 46.2876 58.624 46.8916C58.624 46.9135 58.624 46.9327 58.624 46.9545V62.5999C58.6528 63.204 58.9103 63.7736 59.343 64.1908C59.7757 64.608 60.3505 64.8407 60.9482 64.8407C61.5459 64.8407 62.1207 64.608 62.5534 64.1908C62.9861 63.7736 63.2436 63.204 63.2724 62.5999V46.9545C63.2643 46.9327 63.2724 46.9108 63.2724 46.8916Z" fill="white" stroke="#F48331" stroke-width="0.770969" stroke-miterlimit="10"/>
<path d="M42.1358 46.8914C42.1153 46.282 41.8616 45.7045 41.4282 45.2807C40.9948 44.857 40.4157 44.6201 39.813 44.6201C39.2103 44.6201 38.6312 44.857 38.1979 45.2807C37.7645 45.7045 37.5108 46.282 37.4902 46.8914C37.4902 46.9133 37.4902 46.9324 37.4902 46.9543V62.5997C37.5108 63.2091 37.7645 63.7866 38.1979 64.2104C38.6312 64.6341 39.2103 64.871 39.813 64.871C40.4157 64.871 40.9948 64.6341 41.4282 64.2104C41.8616 63.7866 42.1153 63.2091 42.1358 62.5997V62.5997V46.9543C42.1372 46.9334 42.1372 46.9123 42.1358 46.8914Z" fill="white" stroke="#F48331" stroke-width="0.770969" stroke-miterlimit="10"/>
<path d="M36.3497 46.8914C36.3292 46.282 36.0754 45.7045 35.6421 45.2807C35.2087 44.857 34.6296 44.6201 34.0269 44.6201C33.4242 44.6201 32.8451 44.857 32.4117 45.2807C31.9784 45.7045 31.7246 46.282 31.7041 46.8914C31.7041 46.9133 31.7041 46.9324 31.7041 46.9543V62.5997C31.7246 63.2091 31.9784 63.7866 32.4117 64.2104C32.8451 64.6341 33.4242 64.871 34.0269 64.871C34.6296 64.871 35.2087 64.6341 35.6421 64.2104C36.0754 63.7866 36.3292 63.2091 36.3497 62.5997V62.5997V46.9543C36.3443 46.9324 36.3497 46.9105 36.3497 46.8914Z" fill="white" stroke="#F48331" stroke-width="0.770969" stroke-miterlimit="10"/>
<path d="M46.0322 71.7478L46.0592 66.4105C46.0911 66.2043 46.1855 66.0132 46.3295 65.8637C46.4338 65.7654 46.5562 65.689 46.6898 65.6388C46.8234 65.5886 46.9654 65.5656 47.1078 65.5711H53.6371C53.8737 65.5751 54.1014 65.6632 54.2803 65.8199C54.4335 65.951 54.5429 66.1267 54.5938 66.323C54.61 68.1313 54.6253 69.9386 54.6397 71.7451" fill="white"/>
<path d="M46.0322 71.7478L46.0592 66.4105C46.0911 66.2043 46.1855 66.0132 46.3295 65.8637C46.4338 65.7654 46.5562 65.689 46.6898 65.6388C46.8234 65.5886 46.9654 65.5656 47.1078 65.5711H53.6371C53.8737 65.5751 54.1014 65.6632 54.2803 65.8199C54.4335 65.951 54.5429 66.1267 54.5938 66.323C54.61 68.1313 54.6253 69.9386 54.6397 71.7451" stroke="#F48331" stroke-width="0.770969" stroke-miterlimit="10"/>
</svg>
