<svg width="1032" height="467" viewBox="0 0 1032 467" fill="none" xmlns="http://www.w3.org/2000/svg">
<mask id="path-2-inside-1_1_11" fill="white">
<path d="M158.851 137.846C178.667 124.78 202.419 119.033 226.016 121.597C249.613 124.16 271.578 134.873 288.125 151.89C304.673 168.906 314.768 191.161 316.671 214.82C318.575 238.48 312.167 262.062 298.553 281.505L248.421 246.402C253.867 238.625 256.43 229.192 255.668 219.729C254.907 210.265 250.869 201.362 244.25 194.556C237.631 187.749 228.845 183.464 219.407 182.438C209.968 181.413 200.467 183.712 192.54 188.938C184.614 194.165 178.759 201.992 175.983 211.071C173.207 220.151 173.685 229.914 177.333 238.68C180.982 247.445 187.573 254.663 195.971 259.091C204.369 263.519 214.05 264.879 223.343 262.938L235.859 322.845C212.625 327.699 188.425 324.297 167.429 313.228C146.433 302.158 129.954 284.111 120.832 262.198C111.711 240.285 110.518 215.877 117.457 193.179C124.397 170.48 139.035 150.912 158.851 137.846ZM317 325H254.5L215 223L317 325ZM416 323H356V123H416V323ZM512 263H576V323H452V123H512V263ZM676 323H616V123H676V323ZM902.51 172.089L854.427 220.172L905.338 271.083L862.912 313.51L812 262.598L761.089 313.51L718.662 271.083L769.574 220.171L721.491 172.089L763.917 129.662L812 177.745L860.083 129.662L902.51 172.089Z"/>
</mask>
<path d="M158.851 137.846C178.667 124.78 202.419 119.033 226.016 121.597C249.613 124.16 271.578 134.873 288.125 151.89C304.673 168.906 314.768 191.161 316.671 214.82C318.575 238.48 312.167 262.062 298.553 281.505L248.421 246.402C253.867 238.625 256.43 229.192 255.668 219.729C254.907 210.265 250.869 201.362 244.25 194.556C237.631 187.749 228.845 183.464 219.407 182.438C209.968 181.413 200.467 183.712 192.54 188.938C184.614 194.165 178.759 201.992 175.983 211.071C173.207 220.151 173.685 229.914 177.333 238.68C180.982 247.445 187.573 254.663 195.971 259.091C204.369 263.519 214.05 264.879 223.343 262.938L235.859 322.845C212.625 327.699 188.425 324.297 167.429 313.228C146.433 302.158 129.954 284.111 120.832 262.198C111.711 240.285 110.518 215.877 117.457 193.179C124.397 170.48 139.035 150.912 158.851 137.846ZM317 325H254.5L215 223L317 325ZM416 323H356V123H416V323ZM512 263H576V323H452V123H512V263ZM676 323H616V123H676V323ZM902.51 172.089L854.427 220.172L905.338 271.083L862.912 313.51L812 262.598L761.089 313.51L718.662 271.083L769.574 220.171L721.491 172.089L763.917 129.662L812 177.745L860.083 129.662L902.51 172.089Z" fill="white"/>
<path d="M158.851 137.846L156.649 134.506L156.649 134.506L158.851 137.846ZM226.016 121.597L226.448 117.62V117.62L226.016 121.597ZM288.125 151.89L290.993 149.101L290.993 149.101L288.125 151.89ZM316.671 214.82L320.658 214.5V214.5L316.671 214.82ZM298.553 281.505L296.259 284.782L299.535 287.076L301.83 283.799L298.553 281.505ZM248.421 246.402L245.145 244.108L242.85 247.385L246.127 249.679L248.421 246.402ZM255.668 219.729L259.655 219.408V219.408L255.668 219.729ZM244.25 194.556L247.118 191.767L247.118 191.767L244.25 194.556ZM219.407 182.438L219.839 178.462L219.839 178.462L219.407 182.438ZM192.54 188.938L190.338 185.599L190.338 185.599L192.54 188.938ZM175.983 211.071L172.158 209.902L172.158 209.902L175.983 211.071ZM177.333 238.68L173.641 240.217L173.641 240.217L177.333 238.68ZM195.971 259.091L194.105 262.629L194.106 262.629L195.971 259.091ZM223.343 262.938L227.259 262.12L226.441 258.204L222.525 259.022L223.343 262.938ZM235.859 322.845L236.677 326.76L240.592 325.942L239.774 322.027L235.859 322.845ZM167.429 313.228L165.564 316.766L165.564 316.766L167.429 313.228ZM120.832 262.198L117.14 263.735L117.14 263.735L120.832 262.198ZM117.457 193.179L113.632 192.009L113.632 192.009L117.457 193.179ZM317 325V329H326.657L319.829 322.172L317 325ZM254.5 325L250.77 326.445L251.76 329H254.5V325ZM215 223L217.829 220.172L211.27 224.445L215 223ZM416 323V327H420V323H416ZM356 323H352V327H356V323ZM356 123V119H352V123H356ZM416 123H420V119H416V123ZM512 263H508V267H512V263ZM576 263H580V259H576V263ZM576 323V327H580V323H576ZM452 323H448V327H452V323ZM452 123V119H448V123H452ZM512 123H516V119H512V123ZM676 323V327H680V323H676ZM616 323H612V327H616V323ZM616 123V119H612V123H616ZM676 123H680V119H676V123ZM902.51 172.089L905.339 174.917L908.167 172.089L905.339 169.26L902.51 172.089ZM854.427 220.172L851.599 217.343L848.77 220.172L851.599 223L854.427 220.172ZM905.338 271.083L908.167 273.911L910.995 271.083L908.167 268.255L905.338 271.083ZM862.912 313.51L860.084 316.338L862.913 319.167L865.741 316.338L862.912 313.51ZM812 262.598L814.829 259.769L812 256.941L809.172 259.769L812 262.598ZM761.089 313.51L758.261 316.338L761.089 319.167L763.918 316.338L761.089 313.51ZM718.662 271.083L715.834 268.255L713.006 271.083L715.834 273.911L718.662 271.083ZM769.574 220.171L772.402 222.999L775.23 220.171L772.402 217.342L769.574 220.171ZM721.491 172.089L718.662 169.26L715.834 172.089L718.662 174.917L721.491 172.089ZM763.917 129.662L766.746 126.834L763.917 124.005L761.089 126.834L763.917 129.662ZM812 177.745L809.172 180.574L812 183.402L814.829 180.574L812 177.745ZM860.083 129.662L862.912 126.834L860.083 124.005L857.255 126.834L860.083 129.662ZM158.851 137.846L161.053 141.185C180.092 128.631 202.912 123.11 225.584 125.573L226.016 121.597L226.448 117.62C201.926 114.956 177.242 120.928 156.649 134.506L158.851 137.846ZM226.016 121.597L225.584 125.573C248.256 128.036 269.359 138.329 285.258 154.678L288.125 151.89L290.993 149.101C273.796 131.417 250.97 120.284 226.448 117.62L226.016 121.597ZM288.125 151.89L285.258 154.678C301.156 171.027 310.855 192.41 312.684 215.141L316.671 214.82L320.658 214.5C318.68 189.913 308.19 166.785 290.993 149.101L288.125 151.89ZM316.671 214.82L312.684 215.141C314.513 237.872 308.357 260.53 295.276 279.211L298.553 281.505L301.83 283.799C315.978 263.594 322.637 239.087 320.658 214.5L316.671 214.82ZM298.553 281.505L300.847 278.228L250.716 243.126L248.421 246.402L246.127 249.679L296.259 284.782L298.553 281.505ZM248.421 246.402L251.698 248.697C257.677 240.157 260.491 229.799 259.655 219.408L255.668 219.729L251.681 220.049C252.368 228.585 250.056 237.093 245.145 244.108L248.421 246.402ZM255.668 219.729L259.655 219.408C258.819 209.017 254.386 199.241 247.118 191.767L244.25 194.556L241.383 197.344C247.353 203.483 250.994 211.513 251.681 220.049L255.668 219.729ZM244.25 194.556L247.118 191.767C239.85 184.293 230.203 179.588 219.839 178.462L219.407 182.438L218.975 186.415C227.488 187.34 235.413 191.205 241.383 197.344L244.25 194.556ZM219.407 182.438L219.839 178.462C209.474 177.336 199.042 179.86 190.338 185.599L192.54 188.938L194.742 192.278C201.892 187.564 210.461 185.49 218.975 186.415L219.407 182.438ZM192.54 188.938L190.338 185.599C181.635 191.338 175.206 199.932 172.158 209.902L175.983 211.071L179.808 212.241C182.312 204.052 187.593 196.992 194.742 192.278L192.54 188.938ZM175.983 211.071L172.158 209.902C169.11 219.871 169.634 230.592 173.641 240.217L177.333 238.68L181.026 237.143C177.735 229.237 177.304 220.43 179.808 212.241L175.983 211.071ZM177.333 238.68L173.641 240.217C177.647 249.841 184.884 257.767 194.105 262.629L195.971 259.091L197.837 255.553C190.262 251.559 184.317 245.048 181.026 237.143L177.333 238.68ZM195.971 259.091L194.106 262.629C203.327 267.491 213.956 268.985 224.161 266.853L223.343 262.938L222.525 259.022C214.143 260.773 205.412 259.546 197.837 255.553L195.971 259.091ZM223.343 262.938L219.428 263.756L231.943 323.663L235.859 322.845L239.774 322.027L227.259 262.12L223.343 262.938ZM235.859 322.845L235.041 318.929C212.718 323.593 189.467 320.325 169.295 309.689L167.429 313.228L165.564 316.766C187.383 328.27 212.532 331.804 236.677 326.76L235.859 322.845ZM167.429 313.228L169.295 309.689C149.122 299.053 133.289 281.715 124.525 260.661L120.832 262.198L117.14 263.735C126.619 286.508 143.744 305.262 165.564 316.766L167.429 313.228ZM120.832 262.198L124.525 260.661C115.762 239.608 114.615 216.157 121.283 194.348L117.457 193.179L113.632 192.009C106.42 215.598 107.66 240.963 117.14 263.735L120.832 262.198ZM117.457 193.179L121.283 194.348C127.95 172.54 142.014 153.739 161.053 141.185L158.851 137.846L156.649 134.506C136.056 148.085 120.844 168.421 113.632 192.009L117.457 193.179ZM317 325V321H254.5V325V329H317V325ZM254.5 325L258.23 323.556L218.73 221.556L215 223L211.27 224.445L250.77 326.445L254.5 325ZM215 223L212.172 225.828L314.172 327.828L317 325L319.829 322.172L217.829 220.172L215 223ZM416 323V319H356V323V327H416V323ZM356 323H360V123H356H352V323H356ZM356 123V127H416V123V119H356V123ZM416 123H412V323H416H420V123H416ZM512 263V267H576V263V259H512V263ZM576 263H572V323H576H580V263H576ZM576 323V319H452V323V327H576V323ZM452 323H456V123H452H448V323H452ZM452 123V127H512V123V119H452V123ZM512 123H508V263H512H516V123H512ZM676 323V319H616V323V327H676V323ZM616 323H620V123H616H612V323H616ZM616 123V127H676V123V119H616V123ZM676 123H672V323H676H680V123H676ZM902.51 172.089L899.682 169.26L851.599 217.343L854.427 220.172L857.256 223L905.339 174.917L902.51 172.089ZM854.427 220.172L851.599 223L902.51 273.911L905.338 271.083L908.167 268.255L857.256 217.343L854.427 220.172ZM905.338 271.083L902.51 268.255L860.084 310.681L862.912 313.51L865.741 316.338L908.167 273.911L905.338 271.083ZM862.912 313.51L865.741 310.681L814.829 259.769L812 262.598L809.172 265.426L860.084 316.338L862.912 313.51ZM812 262.598L809.172 259.769L758.261 310.681L761.089 313.51L763.918 316.338L814.829 265.426L812 262.598ZM761.089 313.51L763.918 310.681L721.491 268.255L718.662 271.083L715.834 273.911L758.261 316.338L761.089 313.51ZM718.662 271.083L721.491 273.911L772.402 222.999L769.574 220.171L766.745 217.343L715.834 268.255L718.662 271.083ZM769.574 220.171L772.402 217.342L724.319 169.26L721.491 172.089L718.662 174.917L766.745 222.999L769.574 220.171ZM721.491 172.089L724.319 174.917L766.746 132.491L763.917 129.662L761.089 126.834L718.662 169.26L721.491 172.089ZM763.917 129.662L761.089 132.491L809.172 180.574L812 177.745L814.829 174.917L766.746 126.834L763.917 129.662ZM812 177.745L814.829 180.574L862.912 132.491L860.083 129.662L857.255 126.834L809.172 174.917L812 177.745ZM860.083 129.662L857.255 132.491L899.682 174.917L902.51 172.089L905.339 169.26L862.912 126.834L860.083 129.662Z" fill="white" mask="url(#path-2-inside-1_1_11)"/>
</svg>
